<svg width="295" height="92" viewBox="0 0 295 92" fill="none" xmlns="http://www.w3.org/2000/svg">
<mask id="mask0_414_3826" style="mask-type:luminance" maskUnits="userSpaceOnUse" x="163" y="66" width="116" height="20">
<path d="M163.227 66.4377H278.084V85.6044H163.227V66.4377Z" fill="white"/>
</mask>
<g mask="url(#mask0_414_3826)">
<path d="M268.623 32.0739H172.698L170.718 32.0638C170.522 33.4509 169.897 34.7371 168.905 35.761C167.907 36.7899 166.638 37.4557 165.252 37.6827C165.252 38.7671 165.252 40.0886 165.252 41.1781C168.381 41.7026 170.784 44.4667 170.784 47.7452C170.784 51.0237 168.386 53.7827 165.257 54.3123L165.247 57.0158C165.247 57.4143 165.247 57.8682 165.247 58.2667H165.257V61.3182C168.386 61.8478 170.784 64.6118 170.784 67.8904C170.784 71.1638 168.386 73.9279 165.257 74.4575C165.262 75.0022 165.257 75.7285 165.257 76.4649C165.257 77.0399 165.252 77.63 165.252 78.1344C168.028 78.5934 170.209 80.7673 170.688 83.5515L172.693 83.5364H268.618L270.467 83.5515C270.961 80.7421 273.243 78.5178 276.059 78.1092V74.4827C274.663 74.291 273.369 73.6504 272.341 72.6366C271.067 71.3706 270.361 69.686 270.361 67.8853C270.361 66.0897 271.067 64.405 272.341 63.139C273.369 62.1252 274.663 61.4847 276.059 61.293V54.3425C274.663 54.1458 273.369 53.5103 272.341 52.4915C271.067 51.2305 270.361 49.5408 270.361 47.7452C270.361 45.9496 271.067 44.2599 272.341 42.9939C273.369 41.98 274.663 41.3395 276.059 41.1478V37.7079C274.663 37.5162 273.369 36.8757 272.341 35.8618C271.293 34.8228 270.633 33.5013 270.432 32.0689L268.623 32.0739ZM168.743 30.0211L172.703 30.0362H268.618L272.396 30.0211L272.386 31.1105C272.386 32.3614 272.875 33.5316 273.762 34.4092C274.648 35.2868 275.822 35.7559 277.051 35.7358L278.084 35.7156V43.1401L277.051 43.12C275.807 43.0998 274.648 43.5689 273.762 44.4465C272.875 45.3241 272.386 46.4943 272.386 47.7452C272.386 48.991 272.875 50.1612 273.762 51.0439C274.648 51.9165 275.822 52.3855 277.051 52.3654L278.084 52.3502V63.2803L277.051 63.2651C277.026 63.2651 277.001 63.2651 276.971 63.2651C275.767 63.2651 274.628 63.7342 273.762 64.5917C272.875 65.4693 272.386 66.6395 272.386 67.8853C272.386 69.1362 272.875 70.3064 273.762 71.184C274.648 72.0616 275.807 72.5307 277.051 72.5105L278.084 72.4954V80.0965L276.996 80.0814C274.507 80.0814 272.447 82.109 272.391 84.5956L272.366 85.5993L268.608 85.5741H172.698L168.779 85.5993L168.759 84.6007C168.703 82.104 166.713 80.1167 164.23 80.0814L163.242 80.0662L163.232 79.0726C163.227 78.4875 163.232 77.4535 163.232 76.4599C163.232 75.5318 163.237 74.6138 163.232 74.059V72.5257L164.23 72.5105C166.728 72.4752 168.764 70.4022 168.764 67.8904C168.764 65.3735 166.728 63.3004 164.23 63.2651L163.232 63.25L163.237 59.2855C163.232 59.2401 163.232 59.1998 163.227 59.1544C163.227 59.0586 163.227 58.9274 163.227 58.7711C163.227 58.4583 163.227 58.0447 163.227 57.6311C163.227 57.2226 163.227 56.809 163.227 56.5064C163.227 56.35 163.227 56.2189 163.227 56.1281C163.232 56.0827 163.232 56.0423 163.237 56.002H163.232V52.3805L164.23 52.3654C166.728 52.33 168.764 50.257 168.764 47.7452C168.764 45.2333 166.728 43.1553 164.23 43.12L163.237 43.1048L163.232 42.1061C163.227 40.6434 163.227 38.1921 163.232 36.7496L163.237 35.7458L164.23 35.7358C165.454 35.7156 166.597 35.2213 167.459 34.3386C168.315 33.4559 168.779 32.2908 168.759 31.0601L168.743 30.0211Z" fill="white"/>
</g>
<mask id="mask1_414_3826" style="mask-type:luminance" maskUnits="userSpaceOnUse" x="179" y="66" width="83" height="16">
<path d="M179.257 66.4377H261.792V81.3474H179.257V66.4377Z" fill="white"/>
</mask>
<g mask="url(#mask1_414_3826)">
<path d="M248.105 79.6072H253.022V80.6261H248.105V79.6072ZM238.282 79.6072H243.194V80.6261H238.282V79.6072ZM228.454 79.6072H233.365V80.6261H228.454V79.6072ZM218.631 79.6072H223.542V80.6261H218.631V79.6072ZM208.802 79.6072H213.714V80.6261H208.802V79.6072ZM198.974 79.6072H203.891V80.6261H198.974V79.6072ZM189.146 79.6072H194.062V80.6261H189.146V79.6072ZM180.849 77.6855C181.171 78.8154 182.209 79.6072 183.378 79.6072H184.234V80.6261H183.378C181.756 80.6261 180.32 79.5316 179.876 77.9629L180.849 77.6855ZM260.553 76.9693H261.566C261.566 78.9818 259.939 80.6211 257.934 80.6261V79.6072C259.379 79.6022 260.553 78.4219 260.553 76.9693ZM179.74 67.9509H180.753V72.8939H179.74V67.9509ZM260.553 67.0833H261.566V72.0263H260.553V67.0833ZM179.74 58.07H180.753V63.0129H179.74V58.07ZM260.553 57.2024H261.566V62.1454H260.553V57.2024ZM179.74 48.184H180.753V53.127H179.74V48.184ZM260.553 47.3165H261.566V52.2594H260.553V47.3165ZM179.74 38.3031H180.753V43.2461H179.74V38.3031ZM261.43 37.3094C261.52 37.6322 261.566 37.9651 261.566 38.298V42.3785H260.553V38.298C260.553 38.0559 260.523 37.8138 260.457 37.5868L261.43 37.3094ZM252.166 34.6412H257.077V35.6601H252.166V34.6412ZM242.337 34.6412H247.249V35.6601H242.337V34.6412ZM232.509 34.6412H237.426V35.6601H232.509V34.6412ZM222.686 34.6412H227.597V35.6601H222.686V34.6412ZM212.857 34.6412H217.774V35.6601H212.857V34.6412ZM203.034 34.6412H207.946V35.6601H203.034V34.6412ZM193.206 34.6412H198.118V35.6601H193.206V34.6412ZM182.612 34.6412H188.289V35.6601H182.612V34.6412Z" fill="white"/>
</g>
<path d="M46.0618 45.0825H47.6939V58.3175C46.1222 59.8257 44.2533 60.9706 42.0921 61.7474C39.9411 62.5292 37.6389 62.9175 35.1806 62.9175C31.6745 62.9175 28.5109 62.1408 25.6898 60.5772C22.8688 59.0035 20.6422 56.8397 19.0201 54.0807C17.4081 51.3268 16.6021 48.2399 16.6021 44.8202C16.6021 41.4206 17.4081 38.3388 19.0201 35.5798C20.6422 32.8259 22.8688 30.6671 25.6898 29.1035C28.5109 27.5298 31.6745 26.743 35.1806 26.743C37.7296 26.743 40.0822 27.1364 42.2332 27.9132C44.3792 28.695 46.223 29.8702 47.7544 31.4439L46.7267 32.614C43.7545 29.7491 39.926 28.3167 35.2411 28.3167C32.0422 28.3167 29.1557 29.043 26.5764 30.4956C24.0073 31.9482 21.9922 33.9355 20.5314 36.4474C19.0805 38.9643 18.3551 41.7535 18.3551 44.8202C18.3551 47.8868 19.0805 50.6862 20.5314 53.2132C21.9922 55.73 24.0073 57.7123 26.5764 59.1649C29.1557 60.6175 32.0422 61.3439 35.2411 61.3439C39.6993 61.3439 43.3062 60.1031 46.0618 57.6114V45.0825Z" fill="#E13B9F"/>
<path d="M63.3711 62.8772C60.9127 62.8772 58.6861 62.3072 56.7013 61.1623C54.7115 60.0224 53.1549 58.4285 52.0265 56.3807C50.9081 54.3379 50.354 52.0178 50.354 49.4202C50.354 46.8377 50.9081 44.5276 52.0265 42.4798C53.1549 40.4371 54.7115 38.8432 56.7013 37.6982C58.6861 36.5583 60.9127 35.9833 63.3711 35.9833C65.8546 35.9833 68.0762 36.5583 70.0408 37.6982C72.0155 38.8432 73.5671 40.4371 74.6955 42.4798C75.8239 44.5276 76.3882 46.8377 76.3882 49.4202C76.3882 52.0178 75.8239 54.3379 74.6955 56.3807C73.5671 58.4285 72.0155 60.0224 70.0408 61.1623C68.0762 62.3072 65.8546 62.8772 63.3711 62.8772ZM63.3711 61.3439C65.507 61.3439 67.4314 60.8395 69.1542 59.8307C70.872 58.8219 72.2221 57.4197 73.2044 55.614C74.1968 53.8134 74.6955 51.7504 74.6955 49.4202C74.6955 47.1101 74.1968 45.0572 73.2044 43.2667C72.2221 41.4811 70.872 40.089 69.1542 39.0904C67.4314 38.0816 65.507 37.5772 63.3711 37.5772C61.22 37.5772 59.2856 38.0816 57.5678 39.0904C55.845 40.089 54.4898 41.4811 53.4974 43.2667C52.5151 45.0572 52.0265 47.1101 52.0265 49.4202C52.0265 51.7504 52.5151 53.8134 53.4974 55.614C54.4898 57.4197 55.845 58.8219 57.5678 59.8307C59.2856 60.8395 61.22 61.3439 63.3711 61.3439Z" fill="#E13B9F"/>
<path d="M79.1833 24.8062H80.876V62.7158H79.1833V24.8062Z" fill="#E13B9F"/>
<path d="M106.62 25.1562V63.0659H104.967V55.8027C103.985 58.133 102.479 59.9538 100.454 61.2703C98.4386 62.5766 96.1314 63.2273 93.5421 63.2273C91.124 63.2273 88.9277 62.6573 86.9529 61.5124C84.9782 60.3725 83.4166 58.7786 82.2781 56.7308C81.1497 54.688 80.5854 52.3679 80.5854 49.7703C80.5854 47.1878 81.1497 44.8777 82.2781 42.8299C83.4166 40.7872 84.9782 39.1933 86.9529 38.0484C88.9277 36.9084 91.124 36.3334 93.5421 36.3334C96.0911 36.3334 98.3832 36.9891 100.413 38.2905C102.438 39.5817 103.945 41.3672 104.927 43.637V25.1562H106.62ZM93.6025 61.694C95.7385 61.694 97.6628 61.1896 99.3857 60.1808C101.103 59.172 102.454 57.7698 103.436 55.9641C104.428 54.1635 104.927 52.1005 104.927 49.7703C104.927 47.4602 104.428 45.4073 103.436 43.6168C102.454 41.8313 101.103 40.4391 99.3857 39.4405C97.6628 38.4317 95.7385 37.9273 93.6025 37.9273C91.4515 37.9273 89.5171 38.4317 87.7992 39.4405C86.0764 40.4391 84.7213 41.8313 83.7289 43.6168C82.7466 45.4073 82.2579 47.4602 82.2579 49.7703C82.2579 52.1005 82.7466 54.1635 83.7289 55.9641C84.7213 57.7698 86.0764 59.172 87.7992 60.1808C89.5171 61.1896 91.4515 61.694 93.6025 61.694Z" fill="#E13B9F"/>
<path d="M137.368 49.6825H114.155C114.18 51.932 114.704 53.9395 115.726 55.7149C116.744 57.4904 118.149 58.8774 119.938 59.8711C121.721 60.8546 123.726 61.3439 125.943 61.3439C127.741 61.3439 129.408 61.016 130.94 60.3553C132.471 59.6844 133.731 58.7009 134.728 57.4097L135.796 58.5193C134.597 59.9215 133.146 60.9958 131.444 61.7474C129.751 62.504 127.917 62.8772 125.943 62.8772C123.348 62.8772 121.036 62.3072 119.011 61.1623C116.996 60.0224 115.409 58.4285 114.255 56.3807C113.097 54.3379 112.522 52.0178 112.522 49.4202C112.522 46.8377 113.051 44.5276 114.114 42.4798C115.187 40.4371 116.678 38.8432 118.588 37.6982C120.492 36.5583 122.623 35.9833 124.975 35.9833C127.283 35.9833 129.378 36.5482 131.262 37.6781C133.156 38.7978 134.647 40.3614 135.736 42.379C136.824 44.3864 137.368 46.6662 137.368 49.2184V49.6825ZM124.975 37.5167C123.001 37.5167 121.212 37.9807 119.615 38.9088C118.013 39.8268 116.739 41.1079 115.787 42.7623C114.83 44.4167 114.301 46.2678 114.195 48.3105H135.796C135.66 46.2678 135.101 44.4167 134.124 42.7623C133.156 41.1079 131.877 39.8268 130.295 38.9088C128.723 37.9807 126.95 37.5167 124.975 37.5167Z" fill="#E13B9F"/>
<path d="M152.691 35.9833C155.981 35.9833 158.58 36.9467 160.489 38.8684C162.394 40.7952 163.351 43.5441 163.351 47.1202V62.7158H161.678V47.2211C161.678 44.0888 160.882 41.7031 159.301 40.0588C157.714 38.4044 155.457 37.5772 152.53 37.5772C149.225 37.5772 146.616 38.5608 144.712 40.5228C142.818 42.4748 141.871 45.1026 141.871 48.4114V62.7158H140.178V36.1851H141.81V42.6816C142.667 40.6136 144.037 38.9794 145.921 37.779C147.815 36.5836 150.072 35.9833 152.691 35.9833Z" fill="#E13B9F"/>
<path d="M167.163 30.2132H154.609V26.9447H183.505V30.2132H170.951V62.7158H167.163V30.2132Z" fill="white"/>
<path d="M183.251 35.8421H186.878V62.7158H183.251V35.8421ZM185.085 29.9509C184.329 29.9509 183.699 29.6987 183.191 29.1842C182.677 28.6748 182.425 28.0645 182.425 27.3483C182.425 26.6774 182.677 26.0873 183.191 25.5728C183.699 25.0634 184.329 24.8062 185.085 24.8062C185.835 24.8062 186.465 25.0583 186.979 25.5526C187.488 26.0369 187.744 26.6219 187.744 27.3079C187.744 28.0494 187.488 28.6748 186.979 29.1842C186.465 29.6987 185.835 29.9509 185.085 29.9509Z" fill="white"/>
<path d="M202.591 62.9781C199.932 62.9781 197.554 62.4031 195.458 61.243C193.373 60.0728 191.735 58.4487 190.542 56.3605C189.358 54.2623 188.768 51.9018 188.768 49.2789C188.768 46.6561 189.358 44.3107 190.542 42.2377C191.735 40.1546 193.373 38.5355 195.458 37.3754C197.554 36.2204 199.932 35.6404 202.591 35.6404C204.899 35.6404 206.964 36.0943 208.778 36.9921C210.601 37.895 212.047 39.2114 213.11 40.9465L210.41 42.7825C209.523 41.4509 208.395 40.4572 207.024 39.7965C205.664 39.1408 204.188 38.8079 202.591 38.8079C200.657 38.8079 198.909 39.2467 197.352 40.1193C195.806 40.9818 194.597 42.2125 193.725 43.8114C192.864 45.4154 192.436 47.2362 192.436 49.2789C192.436 51.352 192.864 53.1829 193.725 54.7667C194.597 56.3555 195.806 57.5862 197.352 58.4588C198.909 59.3213 200.657 59.75 202.591 59.75C204.188 59.75 205.664 59.4272 207.024 58.7816C208.395 58.136 209.523 57.1474 210.41 55.8158L213.11 57.6518C212.047 59.3868 210.596 60.7134 208.757 61.6263C206.929 62.5292 204.873 62.9781 202.591 62.9781Z" fill="white"/>
<path d="M224.646 49.2184L218.319 55.0491V62.7158H214.692V24.8062H218.319V50.5097L234.339 35.8421H238.832L227.347 46.8176L239.9 62.7158H235.467L224.646 49.2184Z" fill="white"/>
<path d="M263.23 50.4088H240.763C240.974 53.193 242.052 55.4476 243.987 57.1675C245.921 58.8925 248.369 59.75 251.342 59.75C253.004 59.75 254.535 59.4575 255.936 58.8623C257.331 58.257 258.54 57.3794 259.563 56.2193L261.598 58.5798C260.399 60.0072 258.908 61.0967 257.125 61.8482C255.336 62.6048 253.377 62.9781 251.241 62.9781C248.47 62.9781 246.027 62.393 243.906 61.2228C241.78 60.0425 240.123 58.4134 238.929 56.3404C237.745 54.2572 237.156 51.9018 237.156 49.2789C237.156 46.6561 237.72 44.3107 238.848 42.2377C239.987 40.1546 241.554 38.5355 243.543 37.3754C245.543 36.2204 247.785 35.6404 250.274 35.6404C252.742 35.6404 254.969 36.2204 256.943 37.3754C258.918 38.5355 260.46 40.1395 261.578 42.1974C262.706 44.2553 263.271 46.6158 263.271 49.2789L263.23 50.4088ZM250.274 38.7474C247.679 38.7474 245.503 39.5746 243.745 41.2289C241.997 42.8833 241.004 45.0371 240.763 47.6851H259.805C259.563 45.0371 258.565 42.8833 256.822 41.2289C255.074 39.5746 252.893 38.7474 250.274 38.7474Z" fill="white"/>
<path d="M279.298 61.0816C278.623 61.702 277.787 62.1711 276.779 62.4939C275.772 62.8167 274.724 62.9781 273.636 62.9781C271.122 62.9781 269.182 62.3022 267.812 60.9404C266.452 59.5684 265.777 57.6417 265.777 55.15V38.9088H260.981V35.8421H265.777V29.9509H269.404V35.8421H277.565V38.9088H269.404V54.9483C269.404 56.5522 269.797 57.7678 270.593 58.6C271.399 59.4373 272.552 59.8509 274.059 59.8509C274.794 59.8509 275.515 59.7399 276.215 59.5079C276.91 59.2658 277.514 58.9228 278.028 58.479L279.298 61.0816Z" fill="white"/>
</svg>
