<svg width="69" height="230" viewBox="0 0 69 230" fill="none" xmlns="http://www.w3.org/2000/svg">
<path d="M68 229.676L0.799993 229.676L0.799993 222.572L68 222.572L68 229.676ZM68 201.667L0.799992 201.667L0.799992 195.811L59.168 149.443L59.168 152.515L0.79999 152.515L0.79999 145.507L68 145.507L68 151.363L9.63199 197.635L9.63199 194.563L68 194.563L68 201.667ZM33.344 118.197L33.344 82.6775L39.488 82.6775L39.488 118.197L33.344 118.197ZM68 117.429L68 124.533L0.799989 124.533L0.799987 78.4535L6.94399 78.4535L6.94399 117.429L68 117.429ZM68.576 36.2112C68.576 41.2672 67.744 45.9712 66.08 50.3232C64.352 54.6112 61.952 58.3552 58.88 61.5552C55.744 64.6912 52.128 67.1552 48.032 68.9472C43.872 70.6752 39.328 71.5392 34.4 71.5392C29.472 71.5392 24.96 70.6752 20.864 68.9472C16.704 67.1552 13.088 64.6912 10.016 61.5552C6.87999 58.3552 4.47999 54.6112 2.81599 50.3232C1.08799 46.0352 0.223987 41.3312 0.223987 36.2112C0.223987 31.1552 1.08799 26.4832 2.81599 22.1952C4.47998 17.9072 6.84798 14.1952 9.91999 11.0592C12.992 7.85924 16.608 5.39524 20.768 3.66724C24.928 1.87524 29.472 0.979242 34.4 0.979242C39.328 0.979242 43.872 1.87524 48.032 3.66724C52.192 5.39524 55.808 7.85924 58.88 11.0592C61.952 14.1952 64.352 17.9072 66.08 22.1952C67.744 26.4832 68.576 31.1552 68.576 36.2112ZM62.24 36.2112C62.24 32.1792 61.568 28.4672 60.224 25.0752C58.816 21.6192 56.864 18.6432 54.368 16.1472C51.808 13.5872 48.864 11.6032 45.536 10.1952C42.144 8.78724 38.432 8.08324 34.4 8.08324C30.368 8.08324 26.688 8.78724 23.36 10.1952C19.968 11.6032 17.024 13.5872 14.528 16.1472C11.968 18.6432 10.016 21.6192 8.67199 25.0752C7.26399 28.4672 6.55999 32.1792 6.55999 36.2112C6.55999 40.2432 7.26399 43.9872 8.67199 47.4432C10.016 50.8992 11.968 53.9072 14.528 56.4672C17.024 58.9632 19.968 60.9472 23.36 62.4192C26.688 63.8272 30.368 64.5312 34.4 64.5312C38.368 64.5312 42.048 63.8272 45.44 62.4192C48.832 60.9472 51.808 58.9632 54.368 56.4672C56.864 53.9072 58.816 50.8992 60.224 47.4432C61.568 43.9872 62.24 40.2432 62.24 36.2112Z" fill="black"/>
</svg>
