<svg width="379" height="233" viewBox="0 0 379 233" fill="none" xmlns="http://www.w3.org/2000/svg">
<path d="M50.2322 92.1749H27.5815V78.8856H89.3126V92.1749H66.6619V149.55H50.2322V92.1749Z" fill="white"/>
<path d="M87.1597 78.8856H103.589V149.55H87.1597V78.8856Z" fill="white"/>
<path d="M143.316 150.743C136.137 150.743 129.617 149.192 123.775 146.048C117.913 142.925 113.327 138.608 109.978 133.077C106.628 127.507 104.953 121.22 104.953 114.218C104.953 107.215 106.628 100.928 109.978 95.358C113.327 89.7876 117.913 85.4507 123.775 82.3074C129.617 79.1841 136.177 77.6124 143.475 77.6124C149.576 77.6124 155.119 78.7066 160.064 80.8751C165.049 83.0634 169.236 86.1669 172.586 90.1855L162.058 99.8939C157.273 94.3832 151.331 91.6179 144.273 91.6179C139.846 91.6179 135.918 92.5728 132.469 94.4826C129.059 96.3925 126.407 99.0782 124.493 102.52C122.579 105.922 121.622 109.821 121.622 114.218C121.622 118.574 122.579 122.474 124.493 125.915C126.407 129.377 129.059 132.043 132.469 133.953C135.918 135.862 139.846 136.817 144.273 136.817C151.331 136.817 157.273 134.032 162.058 128.462L172.586 138.17C169.236 142.268 165.049 145.392 160.064 147.56C155.06 149.669 149.477 150.743 143.316 150.743Z" fill="white"/>
<path d="M198.499 121.777L189.008 131.645V149.55H172.658V78.8856H189.008V111.91L220.352 78.8856H238.536L209.186 110.398L240.291 149.55H221.149L198.499 121.777Z" fill="white"/>
<path d="M291.477 136.419V149.55H236.605V78.8856H290.201V92.0157H252.955V107.374H285.814V120.027H252.955V136.419H291.477Z" fill="white"/>
<path d="M308.245 92.1749H285.595V78.8856H347.326V92.1749H324.675V149.55H308.245V92.1749Z" fill="white"/>
<mask id="mask0_462_37984" style="mask-type:luminance" maskUnits="userSpaceOnUse" x="270" y="61" width="11" height="9">
<path d="M270.532 61.1147H280.741V69.1918H270.532V61.1147Z" fill="white"/>
</mask>
<g mask="url(#mask0_462_37984)">
<path d="M273.303 63.3031C272.785 63.6612 272.665 64.3774 273.044 64.8946L275.716 68.5949C275.935 68.9132 276.294 69.0724 276.653 69.0724C276.893 69.0724 277.112 69.0127 277.331 68.8735C277.83 68.4955 277.949 67.7793 277.59 67.2819L274.919 63.5617C274.54 63.0445 273.822 62.9251 273.303 63.3031Z" fill="black"/>
</g>
<path d="M265.288 52.1624C264.77 52.5205 264.65 53.2367 265.029 53.7539L267.701 57.4542C267.92 57.7725 268.279 57.9317 268.638 57.9317C268.857 57.9317 269.096 57.872 269.296 57.7328C269.814 57.3548 269.934 56.6386 269.575 56.1412L266.903 52.421C266.524 51.9038 265.806 51.8043 265.288 52.1624Z" fill="black"/>
<path d="M257.273 41.0217C256.754 41.3997 256.635 42.096 256.993 42.6132L259.665 46.3334C259.904 46.6318 260.243 46.8109 260.602 46.8109C260.842 46.8109 261.081 46.7313 261.28 46.5921C261.799 46.234 261.918 45.5178 261.539 45.0005L258.868 41.3002C258.509 40.783 257.791 40.6636 257.273 41.0217Z" fill="black"/>
<path d="M249.257 29.881C248.739 30.259 248.619 30.9752 248.978 31.4725L251.65 35.1927C251.869 35.511 252.228 35.6702 252.587 35.6702C252.826 35.6702 253.065 35.5906 253.265 35.4514C253.783 35.0933 253.903 34.3771 253.524 33.8598L250.852 30.1595C250.473 29.6423 249.756 29.5229 249.257 29.881Z" fill="black"/>
<mask id="mask1_462_37984" style="mask-type:luminance" maskUnits="userSpaceOnUse" x="221" y="1" width="96" height="69">
<path d="M221.103 1.11407H316.471V69.1918H221.103V1.11407Z" fill="white"/>
</mask>
<g mask="url(#mask1_462_37984)">
<path d="M242.298 22.2019L243.634 24.052C243.854 24.3703 244.213 24.5295 244.571 24.5295C244.811 24.5295 245.03 24.4698 245.229 24.3305C245.748 23.9525 245.868 23.2364 245.509 22.739L244.173 20.8689L263.653 7.02264C264.63 6.30645 266.106 6.56507 266.803 7.53989L269.575 11.3795L263.713 15.5572C262.676 16.2933 262.437 17.7058 263.175 18.7403L269.934 28.1104C270.293 28.6078 270.831 28.946 271.429 29.0454C272.047 29.1449 272.646 29.0056 273.144 28.6476L279.006 24.4698L283.094 30.1595L277.232 34.3373C276.195 35.0535 275.955 36.4858 276.693 37.5004L283.452 46.8905C283.811 47.3878 284.35 47.726 284.948 47.8255C285.566 47.9051 286.184 47.7658 286.683 47.4276L292.525 43.2498L296.632 48.9197L290.75 53.0974C289.733 53.8335 289.494 55.2659 290.232 56.2805L296.991 65.6705C297.33 66.1679 297.868 66.4862 298.486 66.5857C299.085 66.6851 299.703 66.5459 300.201 66.1878L306.063 62.0299L310.151 67.6997L304.269 71.8775C303.252 72.6136 303.013 74.0261 303.75 75.0407L305.365 77.3086H311.008L308.815 74.2449L314.697 70.087C315.714 69.3509 315.953 67.9186 315.215 66.904L308.456 57.5139C308.097 57.0166 307.559 56.6983 306.961 56.5988C306.362 56.4993 305.744 56.6386 305.246 56.9967L299.384 61.1546L295.296 55.4847L301.178 51.307C302.195 50.5709 302.434 49.1584 301.697 48.1239L294.937 38.7339C294.578 38.2564 294.04 37.9182 293.442 37.8187C292.844 37.7193 292.226 37.8585 291.727 38.2166L285.865 42.3745L281.778 36.7047L287.64 32.5269C288.676 31.8107 288.916 30.3783 288.178 29.3637L281.419 19.9737C281.06 19.4764 280.521 19.1382 279.923 19.0387C279.325 18.9591 278.707 19.0785 278.209 19.4366L272.346 23.6143L268.259 17.9445L274.121 13.7667C275.158 13.0307 275.397 11.5983 274.659 10.5837L270.552 4.89397C268.419 1.92974 263.952 1.19366 260.961 3.30244L156.94 77.3086H164.816L242.298 22.2019Z" fill="url(#paint0_linear_462_37984)"/>
</g>
<path d="M62.498 54.7772H67.8417V69.8967C65.9275 71.4882 63.6545 72.7416 61.0624 73.6368C58.5102 74.4723 55.8384 74.91 53.0868 74.91C49.1389 74.91 45.5898 74.0745 42.3995 72.3636C39.2492 70.6129 36.7767 68.2256 34.9822 65.2017C33.2276 62.1778 32.3503 58.7958 32.3503 55.0159C32.3503 51.2559 33.2276 47.854 34.9822 44.8301C36.7767 41.7664 39.289 39.3791 42.4793 37.6682C45.6695 35.9772 49.2187 35.1218 53.1666 35.1218C56.297 35.1218 59.1483 35.639 61.7005 36.6337C64.2526 37.6483 66.406 39.1404 68.1607 41.09L64.7312 44.5118C61.5808 41.5476 57.8123 40.0555 53.4058 40.0555C50.415 40.0555 47.7631 40.6921 45.4302 41.9653C43.0774 43.2386 41.2231 45.029 39.8473 47.297C38.5114 49.5848 37.8534 52.1511 37.8534 55.0159C37.8534 57.8409 38.5114 60.3873 39.8473 62.6552C41.2231 64.9431 43.0774 66.7136 45.4302 67.9869C47.7631 69.2601 50.3951 69.8967 53.3261 69.8967C56.8353 69.8967 59.886 69.081 62.498 67.4298V54.7772Z" fill="white"/>
<path d="M90.044 74.91C86.0961 74.91 82.547 74.0745 79.3567 72.3636C76.2064 70.6129 73.7339 68.2256 71.9394 65.2017C70.1848 62.138 69.3075 58.7361 69.3075 55.0159C69.3075 51.2559 70.1848 47.854 71.9394 44.8301C73.7339 41.8062 76.2064 39.4587 79.3567 37.7478C82.547 35.9971 86.0961 35.1218 90.044 35.1218C93.9122 35.1218 97.4214 35.9971 100.572 37.7478C103.762 39.4587 106.234 41.8062 107.989 44.8301C109.784 47.854 110.701 51.2559 110.701 55.0159C110.701 58.7958 109.784 62.1778 107.989 65.2017C106.234 68.2256 103.762 70.6129 100.572 72.3636C97.4214 74.0745 93.9122 74.91 90.044 74.91ZM90.044 69.8967C92.9152 69.8967 95.4674 69.2601 97.7006 67.9869C99.9736 66.7136 101.788 64.9431 103.124 62.6552C104.44 60.3873 105.118 57.8409 105.118 55.0159C105.118 52.2108 104.44 49.6644 103.124 47.3765C101.788 45.1086 99.9736 43.3181 97.7006 42.0449C95.4674 40.7319 92.9152 40.0555 90.044 40.0555C87.1728 40.0555 84.5608 40.7319 82.228 42.0449C79.935 43.3181 78.1205 45.1086 76.8045 47.3765C75.4686 49.6644 74.8107 52.2108 74.8107 55.0159C74.8107 57.8409 75.4686 60.3873 76.8045 62.6552C78.1205 64.9431 79.935 66.7136 82.228 67.9869C84.5608 69.2601 87.1728 69.8967 90.044 69.8967Z" fill="white"/>
<path d="M113.161 35.5197H118.743V69.5784H139.879V74.4326H113.161V35.5197Z" fill="white"/>
<path d="M140.209 35.5197H156.639C160.786 35.5197 164.455 36.3552 167.645 37.9865C170.836 39.6377 173.308 41.9455 175.063 44.9097C176.817 47.8341 177.695 51.1962 177.695 55.0159C177.695 58.8356 176.817 62.2375 175.063 65.2017C173.308 68.1261 170.836 70.414 167.645 72.0453C164.455 73.6368 160.786 74.4326 156.639 74.4326H140.209V35.5197ZM156.32 69.5784C159.45 69.5784 162.222 68.9816 164.615 67.7481C167.007 66.5346 168.842 64.8436 170.118 62.6552C171.434 60.4271 172.112 57.8807 172.112 55.0159C172.112 52.1114 171.434 49.5649 170.118 47.3766C168.842 45.1484 167.007 43.4375 164.615 42.2041C162.222 40.9905 159.45 40.3738 156.32 40.3738H145.792V69.5784H156.32Z" fill="white"/>
<path d="M208.486 69.5784V74.4326H180.173V35.5197H207.688V40.3738H185.755V52.3103H205.296V57.0849H185.755V69.5784H208.486Z" fill="white"/>
<path d="M244.949 35.5197V74.4326H240.403L217.035 45.4667V74.4326H211.452V35.5197H216.078L239.446 64.5651V35.5197H244.949Z" fill="white"/>
<path d="M130.022 186.488C130.261 186.488 130.501 186.408 130.7 186.269C131.218 185.911 131.338 185.194 130.959 184.677L128.507 181.275H126.293C126.174 181.613 126.194 181.991 126.413 182.29L129.085 186.01C129.324 186.328 129.663 186.488 130.022 186.488Z" fill="black"/>
<path d="M138.057 197.628C138.277 197.628 138.516 197.549 138.715 197.409C139.234 197.051 139.353 196.335 138.995 195.818L136.303 192.098C135.944 191.6 135.226 191.481 134.708 191.839C134.189 192.197 134.07 192.913 134.448 193.431L137.12 197.151C137.34 197.449 137.699 197.628 138.057 197.628Z" fill="black"/>
<mask id="mask2_462_37984" style="mask-type:luminance" maskUnits="userSpaceOnUse" x="86" y="178" width="103" height="47">
<path d="M86.7744 178.251H188.862V224.605H86.7744V178.251Z" fill="white"/>
</mask>
<g mask="url(#mask2_462_37984)">
<path d="M145.196 204.432L144.338 203.238C143.959 202.741 143.242 202.622 142.723 202.98C142.205 203.338 142.085 204.054 142.464 204.571L143.321 205.765L123.841 219.631C122.844 220.327 121.388 220.089 120.691 219.114L117.899 215.235L123.761 211.057C124.798 210.321 125.037 208.908 124.3 207.874L117.54 198.484C117.181 198.006 116.643 197.668 116.045 197.569C115.427 197.469 114.809 197.608 114.31 197.966L108.468 202.124L104.381 196.454L110.243 192.277C111.279 191.561 111.499 190.128 110.761 189.114L105.118 181.275H97.8804L94.9295 183.364L93.434 181.275H87.7714L92.5368 187.88C92.8957 188.358 93.434 188.696 94.0322 188.795C94.6304 188.895 95.2485 188.755 95.747 188.397L101.609 184.239L105.696 189.909L99.8344 194.087C98.7976 194.803 98.5583 196.236 99.2961 197.25L106.055 206.64C106.414 207.138 106.953 207.476 107.551 207.575C108.149 207.655 108.767 207.516 109.266 207.177L115.128 203L119.215 208.669L113.353 212.847C112.316 213.583 112.077 214.996 112.815 216.03L116.942 221.76C118.218 223.55 120.312 224.605 122.525 224.605C123.961 224.605 125.356 224.167 126.513 223.331L185.672 181.275H177.776L145.196 204.432Z" fill="url(#paint1_linear_462_37984)"/>
</g>
<mask id="mask3_462_37984" style="mask-type:luminance" maskUnits="userSpaceOnUse" x="46" y="151" width="281" height="28">
<path d="M46.4379 151.931H326.68V178.251H46.4379V151.931Z" fill="white"/>
</mask>
<g mask="url(#mask3_462_37984)">
<path d="M315.674 44.4236H53.4763C49.668 44.4236 46.5775 47.4873 46.5775 51.2672V58.3097C46.5775 59.5829 47.6143 60.5975 48.8704 60.5975H56.1681V67.64H48.8704C47.6143 67.64 46.5775 68.6546 46.5775 69.9279V81.5261C46.5775 82.7994 47.6143 83.814 48.8704 83.814H56.1681V90.8565H48.8704C47.6143 90.8565 46.5775 91.8711 46.5775 93.1443V104.743C46.5775 106.016 47.6143 107.03 48.8704 107.03H56.1681V114.073H48.8704C47.6143 114.073 46.5775 115.088 46.5775 116.361V127.959C46.5775 129.232 47.6143 130.247 48.8704 130.247H56.1681V137.289H48.8704C47.6143 137.289 46.5775 138.304 46.5775 139.577V151.175C46.5775 152.429 47.6143 153.463 48.8704 153.463H56.1681V160.506H48.8704C47.6143 160.506 46.5775 161.52 46.5775 162.794V169.876C46.5775 173.636 49.668 176.72 53.4763 176.72H315.674C319.482 176.72 322.573 173.636 322.573 169.876V162.794C322.573 161.52 321.556 160.506 320.28 160.506H313.002V153.463H320.28C321.556 153.463 322.573 152.429 322.573 151.175V139.577C322.573 138.304 321.556 137.289 320.28 137.289H313.002V130.247H320.28C321.556 130.247 322.573 129.232 322.573 127.959V116.361C322.573 115.088 321.556 114.073 320.28 114.073H313.002V107.03H320.28C321.556 107.03 322.573 106.016 322.573 104.743V93.1443C322.573 91.8711 321.556 90.8565 320.28 90.8565H313.002V83.814H320.28C321.556 83.814 322.573 82.7994 322.573 81.5261V69.9279C322.573 68.6546 321.556 67.64 320.28 67.64H313.002V60.5975H320.28C321.556 60.5975 322.573 59.5829 322.573 58.3097V51.2672C322.573 47.4873 319.482 44.4236 315.674 44.4236ZM317.987 56.0418H310.689C309.433 56.0418 308.396 57.0564 308.396 58.3097V69.9279C308.396 71.1812 309.433 72.1958 310.689 72.1958H317.987V79.2582H310.689C309.433 79.2582 308.396 80.2728 308.396 81.5261V93.1443C308.396 94.3976 309.433 95.4122 310.689 95.4122H317.987V102.475H310.689C309.433 102.475 308.396 103.489 308.396 104.743V116.361C308.396 117.614 309.433 118.629 310.689 118.629H317.987V125.691H310.689C309.433 125.691 308.396 126.706 308.396 127.959V139.577C308.396 140.831 309.433 141.845 310.689 141.845H317.987V148.888H310.689C309.433 148.888 308.396 149.922 308.396 151.175V162.794C308.396 164.047 309.433 165.062 310.689 165.062H317.987V169.876C317.987 171.129 316.95 172.144 315.674 172.144H291.528V169.876C291.528 169.239 291.009 168.722 290.391 168.722C289.753 168.722 289.235 169.239 289.235 169.876V172.144H79.9354V169.876C79.9354 169.239 79.4169 168.722 78.7789 168.722C78.1408 168.722 77.6224 169.239 77.6224 169.876V172.144H53.4763C52.2202 172.144 51.1834 171.129 51.1834 169.876V165.062H58.4611C59.7372 165.062 60.7541 164.047 60.7541 162.794V151.175C60.7541 149.922 59.7372 148.888 58.4611 148.888H51.1834V141.845H58.4611C59.7372 141.845 60.7541 140.831 60.7541 139.577V127.959C60.7541 126.706 59.7372 125.691 58.4611 125.691H51.1834V118.629H58.4611C59.7372 118.629 60.7541 117.614 60.7541 116.361V104.743C60.7541 103.489 59.7372 102.475 58.4611 102.475H51.1834V95.4122H58.4611C59.7372 95.4122 60.7541 94.3976 60.7541 93.1443V81.5261C60.7541 80.2728 59.7372 79.2582 58.4611 79.2582H51.1834V72.1958H58.4611C59.7372 72.1958 60.7541 71.1812 60.7541 69.9279V58.3097C60.7541 57.0564 59.7372 56.0418 58.4611 56.0418H51.1834V51.2672C51.1834 50.0138 52.2202 48.9793 53.4763 48.9793H77.6224V51.2672C77.6224 51.9038 78.1408 52.4011 78.7789 52.4011C79.4169 52.4011 79.9354 51.9038 79.9354 51.2672V48.9793H289.235V51.2672C289.235 51.9038 289.753 52.4011 290.391 52.4011C291.009 52.4011 291.528 51.9038 291.528 51.2672V48.9793H315.674C316.95 48.9793 317.987 50.0138 317.987 51.2672V56.0418Z" fill="url(#paint2_linear_462_37984)"/>
</g>
<path d="M105.736 153.901H101.788C101.669 153.901 101.569 153.901 101.469 153.881C101.41 153.881 101.35 153.861 101.29 153.861C100.732 153.861 100.233 154.279 100.153 154.856C100.074 155.473 100.512 156.05 101.13 156.149C101.23 156.149 101.31 156.169 101.41 156.169C101.41 156.169 101.41 156.169 101.43 156.169C101.43 156.169 101.43 156.169 101.45 156.169C101.45 156.169 101.45 156.169 101.469 156.169H101.489C101.489 156.169 101.489 156.169 101.509 156.169C101.509 156.169 101.509 156.169 101.529 156.169C101.529 156.169 101.529 156.169 101.549 156.169C101.549 156.189 101.549 156.189 101.549 156.189C101.549 156.189 101.549 156.189 101.569 156.189C101.569 156.189 101.569 156.189 101.589 156.189H101.609C101.629 156.189 101.629 156.189 101.629 156.189C101.649 156.189 101.649 156.189 101.649 156.189H101.669H101.689H101.709C101.709 156.189 101.709 156.189 101.729 156.189C101.749 156.189 101.749 156.189 101.749 156.189C101.749 156.189 101.749 156.189 101.769 156.189C101.769 156.189 101.769 156.189 101.788 156.189H105.736C106.374 156.189 106.893 155.672 106.893 155.035C106.893 154.418 106.374 153.901 105.736 153.901Z" fill="black"/>
<path d="M147.13 153.901H142.544C141.906 153.901 141.387 154.418 141.387 155.035C141.387 155.672 141.906 156.189 142.544 156.189H147.13C147.768 156.189 148.286 155.672 148.286 155.035C148.286 154.418 147.768 153.901 147.13 153.901Z" fill="black"/>
<path d="M119.534 153.901H114.928C114.31 153.901 113.792 154.418 113.792 155.035C113.792 155.672 114.31 156.189 114.928 156.189H119.534C120.172 156.189 120.691 155.672 120.691 155.035C120.691 154.418 120.172 153.901 119.534 153.901Z" fill="black"/>
<path d="M133.332 153.901H128.746C128.108 153.901 127.589 154.418 127.589 155.035C127.589 155.672 128.108 156.189 128.746 156.189H133.332C133.97 156.189 134.488 155.672 134.488 155.035C134.488 154.418 133.97 153.901 133.332 153.901Z" fill="black"/>
<mask id="mask4_462_37984" style="mask-type:luminance" maskUnits="userSpaceOnUse" x="265" y="151" width="11" height="7">
<path d="M265.428 151.931H275.636V157.88H265.428V151.931Z" fill="white"/>
</mask>
<g mask="url(#mask4_462_37984)">
<path d="M269.994 152.707C269.675 152.707 269.356 152.847 269.116 153.105C268.678 153.603 268.04 153.901 267.382 153.901H266.744C266.106 153.901 265.587 154.418 265.587 155.035C265.587 155.672 266.106 156.189 266.744 156.189H267.382C267.402 156.189 267.402 156.189 267.402 156.189C267.402 156.189 267.402 156.189 267.422 156.189H267.441C267.441 156.189 267.441 156.189 267.461 156.189H267.481H267.501H267.521H267.541C267.541 156.189 267.541 156.189 267.561 156.189C267.581 156.189 267.581 156.189 267.581 156.189H267.601L267.621 156.169C267.621 156.169 267.621 156.169 267.641 156.169H267.661C267.681 156.169 267.681 156.169 267.681 156.169H267.701C267.701 156.169 267.701 156.169 267.721 156.169C267.721 156.169 267.721 156.169 267.741 156.169C267.741 156.169 267.741 156.169 267.76 156.169H267.78H267.8C267.8 156.169 267.8 156.169 267.82 156.169H267.84H267.86C267.86 156.169 267.86 156.169 267.86 156.149H267.88C267.88 156.149 267.88 156.149 267.9 156.149H267.92H267.94C267.96 156.149 267.96 156.149 267.96 156.149C267.96 156.149 267.96 156.149 267.98 156.149H268H268.04C268.04 156.129 268.04 156.129 268.04 156.129C268.06 156.129 268.06 156.129 268.06 156.129C268.06 156.129 268.06 156.129 268.079 156.129H268.099C268.119 156.129 268.119 156.129 268.119 156.129H268.139C268.139 156.129 268.139 156.129 268.159 156.129C268.159 156.129 268.159 156.129 268.159 156.109H268.179C268.199 156.109 268.199 156.109 268.199 156.109C268.219 156.109 268.219 156.109 268.219 156.109C268.219 156.109 268.219 156.109 268.239 156.109H268.259C268.279 156.089 268.279 156.089 268.279 156.089C268.279 156.089 268.279 156.089 268.299 156.089H268.319H268.339C268.359 156.089 268.359 156.089 268.359 156.069H268.379C268.379 156.069 268.379 156.069 268.399 156.069C268.399 156.069 268.399 156.069 268.418 156.069C268.438 156.069 268.438 156.069 268.458 156.069C268.458 156.05 268.458 156.05 268.458 156.05C268.478 156.05 268.478 156.05 268.478 156.05H268.498H268.518C268.518 156.05 268.518 156.05 268.538 156.05C268.538 156.05 268.538 156.05 268.538 156.03H268.558C268.558 156.03 268.558 156.03 268.578 156.03C268.578 156.03 268.598 156.03 268.618 156.01H268.638C268.658 156.01 268.678 155.99 268.698 155.99C268.718 155.99 268.718 155.99 268.718 155.99C268.737 155.99 268.757 155.97 268.757 155.97C268.777 155.97 268.777 155.97 268.777 155.97C268.797 155.97 268.797 155.97 268.797 155.97C268.817 155.95 268.837 155.95 268.857 155.95C268.877 155.93 268.897 155.93 268.937 155.91C269.695 155.652 270.353 155.194 270.871 154.597C271.29 154.12 271.23 153.404 270.751 152.986C270.532 152.807 270.253 152.707 269.994 152.707Z" fill="black"/>
</g>
<path d="M257.532 153.901H252.946C252.308 153.901 251.789 154.418 251.789 155.035C251.789 155.672 252.308 156.189 252.946 156.189H257.532C258.17 156.189 258.688 155.672 258.688 155.035C258.688 154.418 258.17 153.901 257.532 153.901Z" fill="black"/>
<path d="M243.734 153.901H239.128C238.51 153.901 237.992 154.418 237.992 155.035C237.992 155.672 238.51 156.189 239.128 156.189H243.734C244.372 156.189 244.89 155.672 244.89 155.035C244.89 154.418 244.372 153.901 243.734 153.901Z" fill="black"/>
<path d="M160.927 153.901H156.341C155.703 153.901 155.185 154.418 155.185 155.035C155.185 155.672 155.703 156.189 156.341 156.189H160.927C161.565 156.189 162.084 155.672 162.084 155.035C162.084 154.418 161.565 153.901 160.927 153.901Z" fill="black"/>
<path d="M188.543 153.901H183.937C183.299 153.901 182.781 154.418 182.781 155.035C182.781 155.672 183.299 156.189 183.937 156.189H188.543C189.181 156.189 189.679 155.672 189.679 155.035C189.679 154.418 189.181 153.901 188.543 153.901Z" fill="black"/>
<path d="M174.745 153.901H170.139C169.501 153.901 168.983 154.418 168.983 155.035C168.983 155.672 169.501 156.189 170.139 156.189H174.745C175.363 156.189 175.882 155.672 175.882 155.035C175.882 154.418 175.363 153.901 174.745 153.901Z" fill="black"/>
<path d="M229.936 153.901H225.33C224.692 153.901 224.194 154.418 224.194 155.035C224.194 155.672 224.692 156.189 225.33 156.189H229.936C230.574 156.189 231.093 155.672 231.093 155.035C231.093 154.418 230.574 153.901 229.936 153.901Z" fill="black"/>
<path d="M216.138 153.901H211.533C210.895 153.901 210.396 154.418 210.396 155.035C210.396 155.672 210.895 156.189 211.533 156.189H216.138C216.777 156.189 217.295 155.672 217.295 155.035C217.295 154.418 216.777 153.901 216.138 153.901Z" fill="black"/>
<path d="M202.341 153.901H197.735C197.097 153.901 196.578 154.418 196.578 155.035C196.578 155.672 197.097 156.189 197.735 156.189H202.341C202.979 156.189 203.497 155.672 203.497 155.035C203.497 154.418 202.979 153.901 202.341 153.901Z" fill="black"/>
<path d="M78.7789 155.035C78.1408 155.035 77.6224 155.552 77.6224 156.189V160.745C77.6224 161.381 78.1408 161.878 78.7789 161.878C79.4169 161.878 79.9354 161.381 79.9354 160.745V156.189C79.9354 155.552 79.4169 155.035 78.7789 155.035Z" fill="black"/>
<path d="M290.391 155.035C289.753 155.035 289.235 155.552 289.235 156.189V160.745C289.235 161.381 289.753 161.878 290.391 161.878C291.009 161.878 291.528 161.381 291.528 160.745V156.189C291.528 155.552 291.009 155.035 290.391 155.035Z" fill="black"/>
<defs>
<linearGradient id="paint0_linear_462_37984" x1="236.292" y1="2.09662" x2="236.292" y2="77.3086" gradientUnits="userSpaceOnUse">
<stop stop-color="#E13B9F"/>
<stop offset="1"/>
</linearGradient>
<linearGradient id="paint1_linear_462_37984" x1="136.722" y1="181.275" x2="136.722" y2="224.605" gradientUnits="userSpaceOnUse">
<stop/>
<stop offset="1" stop-color="#E13B9F"/>
</linearGradient>
<linearGradient id="paint2_linear_462_37984" x1="25.3329" y1="167.732" x2="348.765" y2="167.732" gradientUnits="userSpaceOnUse">
<stop/>
<stop offset="1" stop-color="#E13B9F"/>
</linearGradient>
</defs>
</svg>
