<svg width="290" height="101" viewBox="0 0 290 101" fill="none" xmlns="http://www.w3.org/2000/svg">
<path d="M167.149 48.1025H158.684V43.1532H181.744V48.1025H173.28V69.3812H167.149V48.1025Z" fill="white"/>
<path d="M180.951 43.1532H187.082V69.3812H180.951V43.1532Z" fill="white"/>
<path d="M201.917 69.8258C199.225 69.8258 196.78 69.2553 194.589 68.1069C192.413 66.9436 190.701 65.3359 189.445 63.2762C188.204 61.2016 187.591 58.8752 187.591 56.282C187.591 53.6741 188.204 51.3476 189.445 49.2879C190.701 47.2356 192.413 45.6278 194.589 44.4572C196.78 43.294 199.24 42.7087 201.977 42.7087C204.265 42.7087 206.329 43.1162 208.168 43.9238C210.023 44.7165 211.585 45.8649 212.864 47.3616L208.916 50.9475C207.121 48.8952 204.908 47.8654 202.276 47.8654C200.638 47.8654 199.173 48.2358 197.879 48.9619C196.601 49.6732 195.606 50.666 194.888 51.9255C194.171 53.1925 193.812 54.6446 193.812 56.282C193.812 57.9046 194.171 59.3568 194.888 60.6385C195.606 61.9055 196.601 62.8909 197.879 63.6022C199.173 64.3134 200.638 64.6691 202.276 64.6691C204.908 64.6691 207.121 63.6318 208.916 61.5573L212.864 65.1432C211.585 66.6695 210.008 67.8327 208.138 68.6403C206.284 69.4257 204.205 69.8258 201.917 69.8258Z" fill="white"/>
<path d="M222.518 59.0678L218.959 62.7427V69.3812H212.888V43.1532H218.959V55.4226L230.684 43.1532H237.503L226.526 54.8595L238.131 69.3812H230.983L222.518 59.0678Z" fill="white"/>
<path d="M257.262 64.5209V69.3812H236.774V43.1532H256.783V48.0432H242.846V53.7333H255.138V58.4455H242.846V64.5209H257.262Z" fill="white"/>
<path d="M263.526 48.1025H255.062V43.1532H278.122V48.1025H269.657V69.3812H263.526V48.1025Z" fill="white"/>
<path d="M256.412 23.8793C256.225 24.0201 256.18 24.2794 256.315 24.4721L257.317 25.8501C257.399 25.9613 257.526 26.028 257.661 26.028C257.75 26.028 257.84 25.9983 257.915 25.9465C258.109 25.8131 258.154 25.5464 258.012 25.3537L257.017 23.9831C256.875 23.7904 256.606 23.746 256.412 23.8793Z" fill="#E13B9F"/>
<path d="M253.421 19.7525C253.227 19.8859 253.182 20.1526 253.316 20.3378L254.318 21.7159C254.401 21.8344 254.535 21.8937 254.67 21.8937C254.752 21.8937 254.842 21.8715 254.917 21.8196C255.111 21.6789 255.156 21.4121 255.014 21.2269L254.019 19.8488C253.877 19.6562 253.615 19.6191 253.421 19.7525Z" fill="#E13B9F"/>
<path d="M259.41 28.0136C259.216 28.1469 259.171 28.4136 259.313 28.6063L259.657 29.073H260.711L260.009 28.1099C259.874 27.9246 259.605 27.8802 259.41 28.0136Z" fill="#E13B9F"/>
<path d="M250.423 15.6183C250.228 15.759 250.183 16.0183 250.325 16.211L251.32 17.5891C251.402 17.7002 251.537 17.7669 251.671 17.7669C251.761 17.7669 251.843 17.7372 251.918 17.6854C252.112 17.552 252.157 17.2853 252.023 17.0927L251.021 15.722C250.886 15.5293 250.617 15.4849 250.423 15.6183Z" fill="#E13B9F"/>
<path d="M247.424 11.4914C247.23 11.6248 247.185 11.8915 247.327 12.0767L248.322 13.4548C248.411 13.5734 248.538 13.6326 248.673 13.6326C248.763 13.6326 248.852 13.6104 248.927 13.5511C249.114 13.4178 249.159 13.151 249.024 12.9658L248.022 11.5877C247.888 11.3951 247.619 11.3581 247.424 11.4914Z" fill="#E13B9F"/>
<path d="M276.511 33.3036V33.6518L276.922 33.3629C277.311 33.0888 277.393 32.5627 277.124 32.1849L274.597 28.7026C274.462 28.5174 274.26 28.3914 274.036 28.3544C273.812 28.3173 273.58 28.3766 273.393 28.5026L272.541 29.1101C274.754 29.2731 276.511 31.0809 276.511 33.3036Z" fill="#E13B9F"/>
<mask id="mask0_453_30738" style="mask-type:luminance" maskUnits="userSpaceOnUse" x="212" y="0" width="62" height="31">
<path d="M212.475 0.814987H273.729V30.3474H212.475V0.814987Z" fill="white"/>
</mask>
<g mask="url(#mask0_453_30738)">
<path d="M244.83 8.63894L245.331 9.32798C245.413 9.43911 245.548 9.5058 245.682 9.5058C245.764 9.5058 245.854 9.47616 245.929 9.42429C246.123 9.29093 246.168 9.02421 246.026 8.83157L245.525 8.14253L252.808 3.00066C253.174 2.74134 253.72 2.83766 253.989 3.2007L255.021 4.62324L252.83 6.17173C252.442 6.44586 252.352 6.9719 252.629 7.34976L255.156 10.832C255.29 11.0172 255.492 11.1358 255.717 11.1728C255.941 11.2099 256.173 11.158 256.352 11.0246L258.543 9.48357L260.068 11.5877L257.878 13.1362C257.496 13.4104 257.407 13.9364 257.683 14.3143L260.203 17.7965C260.338 17.9817 260.54 18.1003 260.764 18.1373C260.988 18.1744 261.22 18.1225 261.407 17.9891L263.598 16.4481L265.123 18.5522L262.932 20.1007C262.543 20.3674 262.454 20.9009 262.73 21.2788L265.258 24.761C265.392 24.9462 265.594 25.0648 265.819 25.1018C266.043 25.1389 266.275 25.087 266.454 24.9536L268.645 23.4126L270.17 25.5167L267.979 27.0652C267.598 27.3319 267.508 27.8654 267.785 28.2433L268.391 29.0731H270.499L269.677 27.9469L271.875 26.3984C272.256 26.1243 272.346 25.5982 272.07 25.2204L269.542 21.7381C269.415 21.5529 269.213 21.4343 268.989 21.3973C268.757 21.3603 268.533 21.4121 268.346 21.5455L266.155 23.0866L264.63 20.9824L266.82 19.4339C267.209 19.1598 267.292 18.6337 267.022 18.2559L264.495 14.7736C264.36 14.5884 264.159 14.4698 263.934 14.4328C263.71 14.3958 263.478 14.4476 263.291 14.581L261.108 16.1221L259.575 14.0179L261.773 12.4694C262.155 12.1953 262.244 11.6692 261.968 11.2914L259.44 7.80913C259.313 7.6239 259.111 7.50535 258.887 7.46831C258.663 7.43126 258.431 7.48313 258.244 7.61649L256.053 9.15757L254.528 7.0534L256.719 5.50491C257.107 5.23819 257.19 4.70474 256.921 4.32688L255.388 2.2153C254.588 1.11876 252.913 0.844628 251.806 1.62999L212.939 29.0731H215.893L244.83 8.63894Z" fill="url(#paint0_linear_453_30738)"/>
</g>
<mask id="mask1_453_30738" style="mask-type:luminance" maskUnits="userSpaceOnUse" x="273" y="34" width="10" height="8">
<path d="M273.729 34.1408H282.067V41.498H273.729V34.1408Z" fill="white"/>
</mask>
<g mask="url(#mask1_453_30738)">
<path d="M281.184 37.7861L279.644 35.6671C279.517 35.4819 279.315 35.3559 279.091 35.3189C278.859 35.2818 278.635 35.3337 278.448 35.467L276.257 37.0155L276.249 37.0007C276.04 37.4379 275.719 37.8157 275.3 38.075C275.674 38.3047 275.98 38.6381 276.197 39.0234C276.324 39.0012 276.451 38.9567 276.563 38.8826L278.747 37.3341L279.786 38.7715C280.063 39.1493 279.973 39.668 279.592 39.9421L276.511 42.113V44.1949L280.594 41.3128C281.745 40.5052 282.007 38.9197 281.184 37.7861Z" fill="#E13B9F"/>
</g>
<mask id="mask2_453_30738" style="mask-type:luminance" maskUnits="userSpaceOnUse" x="171" y="30" width="105" height="12">
<path d="M171.642 30.3474H275.644V41.498H171.642V30.3474Z" fill="white"/>
</mask>
<g mask="url(#mask2_453_30738)">
<path d="M272.219 30.7697H174.274C172.853 30.7697 171.694 31.9107 171.694 33.3036V35.919C171.694 36.3858 172.083 36.7636 172.554 36.7636H175.275V39.379H172.554C172.083 39.379 171.694 39.7569 171.694 40.2236V44.5357C171.694 45.0025 172.083 45.3803 172.554 45.3803H175.275V47.9957H172.554C172.083 47.9957 171.694 48.3736 171.694 48.8404V53.145C171.694 53.6118 172.083 53.9896 172.554 53.9896H175.275V56.605H172.554C172.083 56.605 171.694 56.9829 171.694 57.4497V61.7543C171.694 62.2285 172.083 62.6063 172.554 62.6063H175.275V65.2143H172.554C172.083 65.2143 171.694 65.5996 171.694 66.0664V70.371C171.694 70.8378 172.083 71.2156 172.554 71.2156H175.275V73.831H172.554C172.083 73.831 171.694 74.2089 171.694 74.6757V77.3059C171.694 78.7062 172.853 79.8398 174.274 79.8398H272.219C273.64 79.8398 274.791 78.7062 274.791 77.3059V74.6757C274.791 74.2089 274.41 73.831 273.931 73.831H271.217V71.2156H273.931C274.41 71.2156 274.791 70.8378 274.791 70.371V66.0664C274.791 65.5996 274.41 65.2143 273.931 65.2143H271.217V62.6063H273.931C274.41 62.6063 274.791 62.2285 274.791 61.7543V57.4497C274.791 56.9829 274.41 56.605 273.931 56.605H271.217V53.9896H273.931C274.41 53.9896 274.791 53.6118 274.791 53.145V48.8404C274.791 48.3736 274.41 47.9957 273.931 47.9957H271.217V45.3803H273.931C274.41 45.3803 274.791 45.0025 274.791 44.5357V40.2236C274.791 39.7569 274.41 39.379 273.931 39.379H271.217V36.7636H273.931C274.41 36.7636 274.791 36.3858 274.791 35.919V33.3036C274.791 31.9107 273.64 30.7697 272.219 30.7697ZM273.071 35.0744H270.357C269.878 35.0744 269.497 35.4522 269.497 35.919V40.2236C269.497 40.6978 269.878 41.0757 270.357 41.0757H273.071V43.6837H270.357C269.878 43.6837 269.497 44.0689 269.497 44.5357V48.8404C269.497 49.3071 269.878 49.685 270.357 49.685H273.071V52.3004H270.357C269.878 52.3004 269.497 52.6782 269.497 53.145V57.4497C269.497 57.9164 269.878 58.2943 270.357 58.2943H273.071V60.9097H270.357C269.878 60.9097 269.497 61.2875 269.497 61.7543V66.0664C269.497 66.5331 269.878 66.911 270.357 66.911H273.071V69.5264H270.357C269.878 69.5264 269.497 69.9043 269.497 70.371V74.6757C269.497 75.1424 269.878 75.5203 270.357 75.5203H273.071V77.3059C273.071 77.7726 272.69 78.1505 272.219 78.1505H263.194V77.3059C263.194 77.0688 262.999 76.8836 262.767 76.8836C262.528 76.8836 262.334 77.0688 262.334 77.3059V78.1505H184.151V77.3059C184.151 77.0688 183.964 76.8836 183.725 76.8836C183.486 76.8836 183.291 77.0688 183.291 77.3059V78.1505H174.274C173.802 78.1505 173.414 77.7726 173.414 77.3059V75.5203H176.135C176.606 75.5203 176.995 75.1424 176.995 74.6757V70.371C176.995 69.9043 176.606 69.5264 176.135 69.5264H173.414V66.911H176.135C176.606 66.911 176.995 66.5331 176.995 66.0664V61.7543C176.995 61.2875 176.606 60.9097 176.135 60.9097H173.414V58.2943H176.135C176.606 58.2943 176.995 57.9164 176.995 57.4497V53.145C176.995 52.6782 176.606 52.3004 176.135 52.3004H173.414V49.685H176.135C176.606 49.685 176.995 49.3071 176.995 48.8404V44.5357C176.995 44.0689 176.606 43.6837 176.135 43.6837H173.414V41.0757H176.135C176.606 41.0757 176.995 40.6978 176.995 40.2236V35.919C176.995 35.4522 176.606 35.0744 176.135 35.0744H173.414V33.3036C173.414 32.8368 173.802 32.459 174.274 32.459H183.291V33.3036C183.291 33.5407 183.486 33.7333 183.725 33.7333C183.964 33.7333 184.151 33.5407 184.151 33.3036V32.459H262.334V33.3036C262.334 33.5407 262.528 33.7333 262.767 33.7333C262.999 33.7333 263.194 33.5407 263.194 33.3036V32.459H272.219C272.69 32.459 273.071 32.8368 273.071 33.3036V35.0744Z" fill="url(#paint1_linear_453_30738)"/>
</g>
<path d="M192.316 39.2309C192.556 39.2309 192.743 39.0382 192.743 38.8085C192.743 38.5715 192.556 38.3862 192.316 38.3862C192.316 38.3862 192.316 38.3862 192.309 38.3862C192.309 38.3862 192.309 38.3862 192.301 38.3862H192.294C192.286 38.3862 192.286 38.3862 192.286 38.3862C192.279 38.3862 192.279 38.3862 192.279 38.3862H192.272H192.264C192.264 38.3862 192.264 38.3862 192.257 38.3862C192.257 38.3862 192.257 38.3862 192.249 38.3862H192.234C192.227 38.3862 192.227 38.3862 192.227 38.3862H192.219H192.212H192.204C192.204 38.3862 192.204 38.3862 192.197 38.3862H192.189C192.189 38.3862 192.189 38.3862 192.182 38.3862C192.174 38.3862 192.174 38.3862 192.174 38.3862C192.167 38.3862 192.167 38.3862 192.167 38.3862V38.3936C192.167 38.3936 192.167 38.3936 192.159 38.3936C192.159 38.3936 192.159 38.3936 192.152 38.3936H192.144H192.137H192.129C192.122 38.3936 192.122 38.3936 192.122 38.3936H192.114C192.114 38.3936 192.114 38.3936 192.107 38.3936C192.107 38.3936 192.107 38.3936 192.1 38.3936V38.401H192.092C192.085 38.401 192.085 38.401 192.085 38.401H192.077H192.07C192.07 38.401 192.07 38.401 192.062 38.401C192.062 38.401 192.062 38.401 192.055 38.401C192.047 38.401 192.047 38.401 192.047 38.401C192.047 38.4085 192.047 38.4085 192.047 38.4085C192.04 38.4085 192.04 38.4085 192.04 38.4085H192.032C192.032 38.4085 192.032 38.4085 192.025 38.4085H192.017C192.01 38.4085 192.01 38.4085 192.01 38.4085H192.002C192.002 38.4085 192.002 38.4085 192.002 38.4159C192.002 38.4159 192.002 38.4159 191.995 38.4159C191.995 38.4159 191.995 38.4159 191.987 38.4159C191.98 38.4159 191.98 38.4159 191.98 38.4159C191.972 38.4159 191.972 38.4159 191.972 38.4159H191.965C191.965 38.4159 191.965 38.4159 191.965 38.4233C191.965 38.4233 191.965 38.4233 191.957 38.4233H191.95C191.943 38.4233 191.943 38.4233 191.943 38.4233H191.935C191.935 38.4233 191.935 38.4233 191.928 38.4233C191.928 38.4307 191.928 38.4307 191.928 38.4307H191.92C191.913 38.4307 191.913 38.4307 191.913 38.4307H191.905H191.898C191.898 38.4307 191.898 38.4307 191.898 38.4381H191.89H191.883C191.883 38.4381 191.883 38.4381 191.875 38.4381H191.868V38.4455C191.86 38.4455 191.86 38.4455 191.86 38.4455H191.853C191.853 38.4455 191.853 38.4455 191.845 38.4455C191.845 38.4529 191.845 38.4529 191.845 38.4529C191.838 38.4529 191.838 38.4529 191.838 38.4529H191.83C191.83 38.4529 191.83 38.4529 191.823 38.4529C191.815 38.4529 191.815 38.4529 191.815 38.4603C191.808 38.4603 191.808 38.4603 191.808 38.4603C191.808 38.4603 191.808 38.4603 191.8 38.4603C191.793 38.4603 191.793 38.4603 191.793 38.4603C191.793 38.4677 191.793 38.4677 191.793 38.4677C191.785 38.4677 191.785 38.4677 191.785 38.4677H191.778C191.771 38.4677 191.771 38.4677 191.771 38.4677V38.4751C191.763 38.4751 191.763 38.4751 191.763 38.4751C191.763 38.4751 191.763 38.4751 191.756 38.4751C191.748 38.4751 191.748 38.4751 191.748 38.4751C191.748 38.4825 191.748 38.4825 191.748 38.4825C191.741 38.4825 191.741 38.4825 191.741 38.4825C191.741 38.4825 191.741 38.4825 191.733 38.4825C191.726 38.4825 191.726 38.4825 191.726 38.4825C191.726 38.49 191.726 38.49 191.726 38.49H191.718H191.711C191.703 38.4974 191.703 38.4974 191.703 38.4974C191.703 38.4974 191.703 38.4974 191.696 38.4974C191.688 38.4974 191.688 38.4974 191.688 38.4974V38.5048H191.681C191.673 38.5048 191.673 38.5048 191.673 38.5048C191.666 38.5048 191.666 38.5122 191.666 38.5122C191.666 38.5122 191.666 38.5122 191.658 38.5122H191.651V38.5196H191.643H191.636V38.527H191.628C191.628 38.527 191.628 38.527 191.621 38.527C191.614 38.527 191.614 38.527 191.614 38.5344C191.614 38.5344 191.614 38.5344 191.606 38.5344C191.599 38.5344 191.599 38.5344 191.599 38.5344C191.599 38.5344 191.599 38.5344 191.599 38.5418C191.599 38.5418 191.599 38.5418 191.591 38.5418C191.584 38.5418 191.584 38.5418 191.584 38.5418V38.5492C191.584 38.5492 191.584 38.5492 191.576 38.5492C191.569 38.5492 191.569 38.5492 191.569 38.5492C191.569 38.5492 191.569 38.5492 191.569 38.5566C191.561 38.5566 191.561 38.5566 191.561 38.5566H191.554C191.554 38.564 191.554 38.564 191.554 38.564H191.546C191.539 38.564 191.539 38.564 191.539 38.564C191.539 38.564 191.539 38.564 191.539 38.5715H191.531C191.531 38.5715 191.531 38.5715 191.524 38.5715C191.524 38.5789 191.524 38.5789 191.524 38.5789H191.509C191.509 38.5789 191.509 38.5789 191.509 38.5863C191.501 38.5863 191.501 38.5863 191.501 38.5863H191.494C191.494 38.5937 191.494 38.5937 191.494 38.5937H191.479V38.6011H191.471C191.471 38.6011 191.471 38.6011 191.471 38.6085C191.464 38.6085 191.464 38.6085 191.464 38.6085H191.456C191.456 38.6159 191.456 38.6159 191.456 38.6159C191.456 38.6159 191.456 38.6159 191.449 38.6159H191.442V38.6233C191.442 38.6233 191.442 38.6233 191.434 38.6233C191.434 38.6233 191.434 38.6233 191.434 38.6307C191.427 38.6307 191.427 38.6307 191.427 38.6307C191.419 38.6307 191.419 38.6307 191.419 38.6307V38.6381C191.412 38.6381 191.412 38.6381 191.412 38.6381C191.404 38.6381 191.404 38.6381 191.404 38.6381V38.6455H191.397C191.397 38.6455 191.397 38.653 191.389 38.653C191.382 38.653 191.382 38.653 191.382 38.653C191.382 38.653 191.382 38.653 191.382 38.6604H191.374C191.374 38.6678 191.374 38.6678 191.367 38.6678C191.367 38.6678 191.367 38.6678 191.359 38.6678V38.6752C191.359 38.6752 191.359 38.6752 191.352 38.6752C191.352 38.6752 191.352 38.6752 191.352 38.6826H191.344H191.337C191.337 38.6826 191.337 38.6826 191.337 38.69C191.329 38.69 191.329 38.69 191.329 38.69C191.329 38.6974 191.322 38.6974 191.322 38.6974H191.314C191.314 38.7048 191.314 38.7048 191.314 38.7048C191.314 38.7048 191.314 38.7048 191.307 38.7048V38.7122C191.299 38.7122 191.299 38.7122 191.299 38.7122L191.292 38.7196C191.285 38.7196 191.285 38.7196 191.285 38.727H191.277C191.277 38.727 191.277 38.727 191.277 38.7345C191.277 38.7345 191.277 38.7345 191.27 38.7345C191.27 38.7345 191.27 38.7345 191.262 38.7419C191.262 38.7419 191.262 38.7419 191.255 38.7419C191.255 38.7493 191.255 38.7493 191.255 38.7493C191.247 38.7493 191.247 38.7493 191.247 38.7567C191.24 38.7567 191.24 38.7567 191.24 38.7641C191.232 38.7641 191.232 38.7641 191.232 38.7641C191.232 38.7641 191.232 38.7641 191.225 38.7641C191.225 38.7715 191.225 38.7715 191.225 38.7715C191.225 38.7715 191.217 38.7715 191.217 38.7789C191.217 38.7789 191.21 38.7789 191.21 38.7863C191.202 38.7863 191.202 38.7863 191.202 38.7937C191.195 38.7937 191.195 38.7937 191.187 38.8011C191.068 38.9049 190.955 39.0308 190.873 39.1642C190.739 39.3642 190.798 39.6235 191 39.7495C191.068 39.7939 191.15 39.8162 191.232 39.8162C191.374 39.8162 191.509 39.7495 191.591 39.6235C191.756 39.379 192.025 39.2309 192.316 39.2309Z" fill="#E13B9F"/>
<path d="M242.145 39.2309H243.865C244.104 39.2309 244.291 39.0382 244.291 38.8085C244.291 38.5715 244.104 38.3862 243.865 38.3862H242.145C241.906 38.3862 241.719 38.5715 241.719 38.8085C241.719 39.0382 241.906 39.2309 242.145 39.2309Z" fill="#E13B9F"/>
<path d="M208.213 38.8085C208.213 38.5715 208.019 38.3862 207.78 38.3862H206.06C205.828 38.3862 205.634 38.5715 205.634 38.8085C205.634 39.0382 205.828 39.2309 206.06 39.2309H207.78C208.019 39.2309 208.213 39.0382 208.213 38.8085Z" fill="#E13B9F"/>
<path d="M226.682 39.2309H228.402C228.634 39.2309 228.828 39.0382 228.828 38.8085C228.828 38.5715 228.634 38.3862 228.402 38.3862H226.682C226.443 38.3862 226.249 38.5715 226.249 38.8085C226.249 39.0382 226.443 39.2309 226.682 39.2309Z" fill="#E13B9F"/>
<path d="M195.756 39.2309H197.468C197.708 39.2309 197.902 39.0382 197.902 38.8085C197.902 38.5715 197.708 38.3862 197.468 38.3862H195.756C195.517 38.3862 195.322 38.5715 195.322 38.8085C195.322 39.0382 195.517 39.2309 195.756 39.2309Z" fill="#E13B9F"/>
<path d="M200.908 39.2309H202.628C202.859 39.2309 203.054 39.0382 203.054 38.8085C203.054 38.5715 202.859 38.3862 202.628 38.3862H200.908C200.669 38.3862 200.474 38.5715 200.474 38.8085C200.474 39.0382 200.669 39.2309 200.908 39.2309Z" fill="#E13B9F"/>
<path d="M216.371 39.2309H218.091C218.33 39.2309 218.517 39.0382 218.517 38.8085C218.517 38.5715 218.33 38.3862 218.091 38.3862H216.371C216.132 38.3862 215.945 38.5715 215.945 38.8085C215.945 39.0382 216.132 39.2309 216.371 39.2309Z" fill="#E13B9F"/>
<path d="M211.219 39.2309H212.931C213.171 39.2309 213.365 39.0382 213.365 38.8085C213.365 38.5715 213.171 38.3862 212.931 38.3862H211.219C210.98 38.3862 210.785 38.5715 210.785 38.8085C210.785 39.0382 210.98 39.2309 211.219 39.2309Z" fill="#E13B9F"/>
<path d="M236.993 39.2309H238.706C238.945 39.2309 239.139 39.0382 239.139 38.8085C239.139 38.5715 238.945 38.3862 238.706 38.3862H236.993C236.754 38.3862 236.56 38.5715 236.56 38.8085C236.56 39.0382 236.754 39.2309 236.993 39.2309Z" fill="#E13B9F"/>
<path d="M247.297 39.2309H249.017C249.256 39.2309 249.451 39.0382 249.451 38.8085C249.451 38.5715 249.256 38.3862 249.017 38.3862H247.297C247.065 38.3862 246.871 38.5715 246.871 38.8085C246.871 39.0382 247.065 39.2309 247.297 39.2309Z" fill="#E13B9F"/>
<path d="M254.408 39.2605C254.453 39.2753 254.49 39.2827 254.528 39.2827C254.715 39.2827 254.887 39.1568 254.939 38.9715C255.006 38.7493 254.879 38.5122 254.647 38.4529C254.617 38.4381 254.587 38.4307 254.55 38.4233H254.543C254.535 38.4233 254.535 38.4233 254.535 38.4233C254.535 38.4233 254.535 38.4233 254.528 38.4233C254.528 38.4233 254.528 38.4233 254.528 38.4159C254.528 38.4159 254.528 38.4159 254.52 38.4159C254.52 38.4159 254.52 38.4159 254.513 38.4159C254.513 38.4159 254.513 38.4159 254.505 38.4159C254.505 38.4159 254.505 38.4159 254.498 38.4159C254.498 38.4159 254.498 38.4159 254.49 38.4159V38.4085H254.475H254.468H254.46C254.453 38.4085 254.453 38.4085 254.453 38.4085C254.445 38.4085 254.445 38.401 254.438 38.401H254.43H254.423C254.415 38.401 254.408 38.401 254.4 38.401C254.393 38.401 254.386 38.3936 254.386 38.3936C254.363 38.3936 254.348 38.3936 254.333 38.3936H254.326C254.318 38.3862 254.318 38.3862 254.318 38.3862C254.311 38.3862 254.311 38.3862 254.311 38.3862C254.303 38.3862 254.303 38.3862 254.303 38.3862H254.296C254.288 38.3862 254.288 38.3862 254.288 38.3862H254.281C254.273 38.3862 254.273 38.3862 254.273 38.3862C254.273 38.3862 254.273 38.3862 254.266 38.3862H254.258H254.251C254.251 38.3862 254.251 38.3862 254.243 38.3862C254.243 38.3862 254.243 38.3862 254.236 38.3862C254.236 38.3862 254.236 38.3862 254.229 38.3862C254.229 38.3862 254.229 38.3862 254.221 38.3862C254.221 38.3862 254.221 38.3862 254.214 38.3862C254.214 38.3862 254.214 38.3862 254.206 38.3862H254.199H254.191H254.184H254.176H252.456C252.217 38.3862 252.023 38.5715 252.023 38.8085C252.023 39.0382 252.217 39.2309 252.456 39.2309H254.176C254.251 39.2309 254.333 39.2383 254.408 39.2605Z" fill="#E13B9F"/>
<mask id="mask3_453_30738" style="mask-type:luminance" maskUnits="userSpaceOnUse" x="254" y="39" width="3" height="3">
<path d="M254.587 39.831H256.502V41.498H254.587V39.831Z" fill="white"/>
</mask>
<g mask="url(#mask3_453_30738)">
<path d="M255.462 40.8535C255.223 40.8535 255.036 41.0461 255.036 41.2758V42.9724C255.036 43.2021 255.223 43.3948 255.462 43.3948C255.702 43.3948 255.889 43.2021 255.889 42.9724V41.2758C255.889 41.0461 255.702 40.8535 255.462 40.8535Z" fill="#E13B9F"/>
</g>
<path d="M223.676 38.8085C223.676 38.5715 223.482 38.3862 223.243 38.3862H221.523C221.291 38.3862 221.097 38.5715 221.097 38.8085C221.097 39.0382 221.291 39.2309 221.523 39.2309H223.243C223.482 39.2309 223.676 39.0382 223.676 38.8085Z" fill="#E13B9F"/>
<path d="M233.987 38.8085C233.987 38.5715 233.793 38.3862 233.554 38.3862H231.834C231.602 38.3862 231.408 38.5715 231.408 38.8085C231.408 39.0382 231.602 39.2309 231.834 39.2309H233.554C233.793 39.2309 233.987 39.0382 233.987 38.8085Z" fill="#E13B9F"/>
<mask id="mask4_453_30738" style="mask-type:luminance" maskUnits="userSpaceOnUse" x="181" y="39" width="5" height="3">
<path d="M181.848 39.831H185.677V41.498H181.848V39.831Z" fill="white"/>
</mask>
<g mask="url(#mask4_453_30738)">
<path d="M183.725 41.3424C183.486 41.3424 183.291 41.5351 183.291 41.7648V43.4614C183.291 43.6911 183.486 43.8837 183.725 43.8837C183.964 43.8837 184.151 43.6911 184.151 43.4614V41.7648C184.151 41.5351 183.964 41.3424 183.725 41.3424Z" fill="black"/>
</g>
<path d="M183.725 36.2672C183.486 36.2672 183.291 36.4599 183.291 36.6896V38.3862C183.291 38.6159 183.486 38.8085 183.725 38.8085C183.964 38.8085 184.151 38.6159 184.151 38.3862V36.6896C184.151 36.4599 183.964 36.2672 183.725 36.2672Z" fill="#E13B9F"/>
<path d="M262.768 36.2672C262.528 36.2672 262.334 36.4599 262.334 36.6896V38.3862C262.334 38.6159 262.528 38.8085 262.768 38.8085C262.999 38.8085 263.194 38.6159 263.194 38.3862V36.6896C263.194 36.4599 262.999 36.2672 262.768 36.2672Z" fill="#E13B9F"/>
<mask id="mask5_453_30738" style="mask-type:luminance" maskUnits="userSpaceOnUse" x="262" y="39" width="3" height="3">
<path d="M262.244 39.831H264.158V41.498H262.244V39.831Z" fill="white"/>
</mask>
<g mask="url(#mask5_453_30738)">
<path d="M262.768 41.3424C262.528 41.3424 262.334 41.5351 262.334 41.7648V43.4614C262.334 43.6911 262.528 43.8837 262.768 43.8837C262.999 43.8837 263.194 43.6911 263.194 43.4614V41.7648C263.194 41.5351 262.999 41.3424 262.768 41.3424Z" fill="#E13B9F"/>
</g>
<path d="M32.955 56.787H36.574V67.0115C35.273 68.0784 33.7476 68.9008 31.9979 69.4713C30.2632 70.0418 28.4536 70.3308 26.5843 70.3308C23.9074 70.3308 21.4998 69.7603 19.3463 68.6119C17.2078 67.4486 15.5329 65.8483 14.3215 63.8108C13.1027 61.7807 12.4971 59.4839 12.4971 56.9352C12.4971 54.3865 13.1027 52.0971 14.3215 50.0596C15.5329 48.0073 17.2227 46.407 19.3762 45.2586C21.5297 44.1176 23.9523 43.5397 26.6441 43.5397C28.7527 43.5397 30.6669 43.8879 32.3867 44.5769C34.1215 45.2512 35.5945 46.2514 36.8133 47.5702L34.4804 49.9114C32.3643 47.8814 29.7996 46.8589 26.7937 46.8589C24.7748 46.8589 22.9728 47.2961 21.3801 48.1629C19.78 49.015 18.5238 50.2078 17.6116 51.7489C16.7143 53.29 16.2656 55.0237 16.2656 56.9352C16.2656 58.8319 16.7143 60.5508 17.6116 62.0919C18.5238 63.6182 19.78 64.8184 21.3801 65.7075C22.9728 66.5818 24.7673 67.0115 26.7638 67.0115C29.1341 67.0115 31.1978 66.4484 32.955 65.3222V56.787Z" fill="white"/>
<path d="M51.6693 70.3308C48.9924 70.3308 46.5847 69.7603 44.4312 68.6119C42.2927 67.4486 40.6178 65.8483 39.4065 63.8108C38.1877 61.7585 37.582 59.4691 37.582 56.9352C37.582 54.4087 38.1877 52.1267 39.4065 50.0893C40.6178 48.037 42.2927 46.4366 44.4312 45.2882C46.5847 44.125 48.9924 43.5397 51.6693 43.5397C54.3013 43.5397 56.6791 44.125 58.8176 45.2882C60.9711 46.4366 62.646 48.0296 63.8423 50.0596C65.0537 52.0971 65.6668 54.3865 65.6668 56.9352C65.6668 59.4839 65.0537 61.7807 63.8423 63.8108C62.646 65.8483 60.9711 67.4486 58.8176 68.6119C56.6791 69.7603 54.3013 70.3308 51.6693 70.3308ZM51.6693 67.0115C53.5984 67.0115 55.3332 66.5818 56.8735 65.7075C58.4288 64.8184 59.6551 63.6182 60.5523 62.0919C61.4496 60.5508 61.8982 58.8319 61.8982 56.9352C61.8982 55.0385 61.4496 53.3344 60.5523 51.8082C59.6551 50.2671 58.4288 49.0668 56.8735 48.1925C55.3332 47.3035 53.5984 46.8589 51.6693 46.8589C49.7102 46.8589 47.9456 47.3035 46.3753 48.1925C44.8201 49.0668 43.5938 50.2671 42.6965 51.8082C41.7992 53.3344 41.3506 55.0385 41.3506 56.9352C41.3506 58.8319 41.7992 60.5508 42.6965 62.0919C43.5938 63.6182 44.8201 64.8184 46.3753 65.7075C47.9456 66.5818 49.7102 67.0115 51.6693 67.0115Z" fill="white"/>
<path d="M67.3899 43.836H71.1585V66.7744H85.485V70.0344H67.3899V43.836Z" fill="white"/>
<path d="M85.7498 43.836H96.876C99.665 43.836 102.147 44.3917 104.323 45.4957C106.492 46.5848 108.182 48.1259 109.378 50.1189C110.574 52.0971 111.173 54.3717 111.173 56.9352C111.173 59.5061 110.574 61.7881 109.378 63.7812C108.182 65.7594 106.492 67.3005 104.323 68.4044C102.147 69.4935 99.665 70.0344 96.876 70.0344H85.7498V43.836ZM96.6666 66.7744C98.7977 66.7744 100.674 66.3743 102.29 65.5593C103.92 64.7295 105.176 63.5737 106.058 62.0919C106.933 60.5953 107.374 58.8764 107.374 56.9352C107.374 54.9792 106.933 53.2603 106.058 51.7785C105.176 50.2967 103.92 49.1557 102.29 48.3407C100.674 47.5109 98.7977 47.096 96.6666 47.096H89.5183V66.7744H96.6666Z" fill="white"/>
<path d="M132.047 66.7744V70.0344H112.875V43.836H131.538V47.096H116.644V55.1274H129.893V58.3281H116.644V66.7744H132.047Z" fill="white"/>
<path d="M156.837 43.836V70.0344H153.727L137.875 50.5042V70.0344H134.106V43.836H137.187L153.069 63.3663V43.836H156.837Z" fill="white"/>
<path d="M202.867 83.0035C202.957 83.0035 203.039 82.9738 203.114 82.922C203.308 82.7886 203.353 82.5219 203.218 82.3292L202.299 81.0697H201.469C201.424 81.1882 201.439 81.329 201.521 81.4476L202.516 82.8256C202.605 82.9368 202.732 83.0035 202.867 83.0035Z" fill="#E13B9F"/>
<path d="M205.865 87.1303C205.948 87.1303 206.037 87.1081 206.112 87.0562C206.306 86.9154 206.351 86.6561 206.209 86.4635L205.215 85.0854C205.08 84.9002 204.811 84.8557 204.617 84.9891C204.422 85.1224 204.377 85.3892 204.512 85.5744L205.514 86.9525C205.596 87.071 205.731 87.1303 205.865 87.1303Z" fill="#E13B9F"/>
<mask id="mask6_453_30738" style="mask-type:luminance" maskUnits="userSpaceOnUse" x="185" y="79" width="39" height="19">
<path d="M185.677 79.662H223.96V97.1399H185.677V79.662Z" fill="white"/>
</mask>
<g mask="url(#mask6_453_30738)">
<path d="M208.535 89.6642L208.213 89.2196C208.071 89.027 207.802 88.9826 207.615 89.1159C207.421 89.2567 207.376 89.516 207.51 89.7086L207.832 90.1532L200.556 95.2951C200.183 95.5544 199.644 95.4655 199.375 95.1024L198.336 93.6651L200.527 92.1166C200.908 91.8424 200.998 91.3164 200.721 90.9385L198.201 87.4563C198.067 87.2711 197.865 87.1451 197.64 87.1155C197.409 87.071 197.184 87.1303 196.997 87.2562L194.806 88.8047L193.281 86.7006L195.472 85.1521C195.861 84.8779 195.95 84.3519 195.674 83.974L193.565 81.0697H190.858L189.759 81.8402L189.198 81.0697H187.09L188.862 83.5147C188.997 83.6999 189.198 83.8185 189.423 83.8555C189.647 83.8925 189.879 83.8407 190.058 83.7073L192.249 82.1662L193.775 84.2704L191.584 85.8189C191.202 86.0856 191.113 86.6191 191.389 86.9969L193.909 90.4792C194.044 90.657 194.246 90.783 194.47 90.82C194.702 90.857 194.926 90.8052 195.113 90.6718L197.304 89.1307L198.829 91.2349L196.638 92.7834C196.25 93.0501 196.16 93.5762 196.436 93.9614L197.977 96.0878C198.455 96.7472 199.24 97.1399 200.063 97.1399C200.601 97.1399 201.117 96.9769 201.558 96.6657L223.646 81.0697H220.7L208.535 89.6642Z" fill="url(#paint2_linear_453_30738)"/>
</g>
<mask id="mask7_453_30738" style="mask-type:luminance" maskUnits="userSpaceOnUse" x="171" y="70" width="105" height="10">
<path d="M171.642 70.1784H275.644V79.662H171.642V70.1784Z" fill="white"/>
</mask>
<g mask="url(#mask7_453_30738)">
<path d="M272.219 30.303H174.274C172.853 30.303 171.694 31.444 171.694 32.8369V35.4523C171.694 35.919 172.083 36.3043 172.554 36.3043H175.275V38.9123H172.554C172.083 38.9123 171.694 39.2901 171.694 39.7569V44.069C171.694 44.5357 172.083 44.9136 172.554 44.9136H175.275V47.529H172.554C172.083 47.529 171.694 47.9069 171.694 48.3736V52.6783C171.694 53.145 172.083 53.5229 172.554 53.5229H175.275V56.1383H172.554C172.083 56.1383 171.694 56.5162 171.694 56.9829V61.2876C171.694 61.7618 172.083 62.1396 172.554 62.1396H175.275V64.7476H172.554C172.083 64.7476 171.694 65.1329 171.694 65.5996V69.9043C171.694 70.3711 172.083 70.7489 172.554 70.7489H175.275V73.3643H172.554C172.083 73.3643 171.694 73.7422 171.694 74.2089V76.8391C171.694 78.2395 172.853 79.373 174.274 79.373H272.219C273.64 79.373 274.791 78.2395 274.791 76.8391V74.2089C274.791 73.7422 274.41 73.3643 273.931 73.3643H271.217V70.7489H273.931C274.41 70.7489 274.791 70.3711 274.791 69.9043V65.5996C274.791 65.1329 274.41 64.7476 273.931 64.7476H271.217V62.1396H273.931C274.41 62.1396 274.791 61.7618 274.791 61.2876V56.9829C274.791 56.5162 274.41 56.1383 273.931 56.1383H271.217V53.5229H273.931C274.41 53.5229 274.791 53.145 274.791 52.6783V48.3736C274.791 47.9069 274.41 47.529 273.931 47.529H271.217V44.9136H273.931C274.41 44.9136 274.791 44.5357 274.791 44.069V39.7569C274.791 39.2901 274.41 38.9123 273.931 38.9123H271.217V36.3043H273.931C274.41 36.3043 274.791 35.919 274.791 35.4523V32.8369C274.791 31.444 273.64 30.303 272.219 30.303ZM273.071 34.6076H270.357C269.878 34.6076 269.497 34.9855 269.497 35.4523V39.7569C269.497 40.2311 269.878 40.609 270.357 40.609H273.071V43.2169H270.357C269.878 43.2169 269.497 43.6022 269.497 44.069V48.3736C269.497 48.8404 269.878 49.2183 270.357 49.2183H273.071V51.8336H270.357C269.878 51.8336 269.497 52.2115 269.497 52.6783V56.9829C269.497 57.4497 269.878 57.8276 270.357 57.8276H273.071V60.4429H270.357C269.878 60.4429 269.497 60.8208 269.497 61.2876V65.5996C269.497 66.0664 269.878 66.4443 270.357 66.4443H273.071V69.0597H270.357C269.878 69.0597 269.497 69.4375 269.497 69.9043V74.2089C269.497 74.6757 269.878 75.0536 270.357 75.0536H273.071V76.8391C273.071 77.3059 272.69 77.6838 272.219 77.6838H263.194V76.8391C263.194 76.6021 262.999 76.4168 262.767 76.4168C262.528 76.4168 262.334 76.6021 262.334 76.8391V77.6838H184.151V76.8391C184.151 76.6021 183.964 76.4168 183.725 76.4168C183.486 76.4168 183.291 76.6021 183.291 76.8391V77.6838H174.274C173.802 77.6838 173.414 77.3059 173.414 76.8391V75.0536H176.135C176.606 75.0536 176.995 74.6757 176.995 74.2089V69.9043C176.995 69.4375 176.606 69.0597 176.135 69.0597H173.414V66.4443H176.135C176.606 66.4443 176.995 66.0664 176.995 65.5996V61.2876C176.995 60.8208 176.606 60.4429 176.135 60.4429H173.414V57.8276H176.135C176.606 57.8276 176.995 57.4497 176.995 56.9829V52.6783C176.995 52.2115 176.606 51.8336 176.135 51.8336H173.414V49.2183H176.135C176.606 49.2183 176.995 48.8404 176.995 48.3736V44.069C176.995 43.6022 176.606 43.2169 176.135 43.2169H173.414V40.609H176.135C176.606 40.609 176.995 40.2311 176.995 39.7569V35.4523C176.995 34.9855 176.606 34.6076 176.135 34.6076H173.414V32.8369C173.414 32.3701 173.802 31.9922 174.274 31.9922H183.291V32.8369C183.291 33.074 183.486 33.2666 183.725 33.2666C183.964 33.2666 184.151 33.074 184.151 32.8369V31.9922H262.334V32.8369C262.334 33.074 262.528 33.2666 262.767 33.2666C262.999 33.2666 263.194 33.074 263.194 32.8369V31.9922H272.219C272.69 31.9922 273.071 32.3701 273.071 32.8369V34.6076Z" fill="url(#paint3_linear_453_30738)"/>
</g>
<path d="M193.797 70.9119H192.316C192.271 70.9119 192.234 70.9119 192.197 70.9045C192.174 70.9045 192.152 70.9045 192.137 70.9045C191.928 70.9045 191.741 71.0527 191.711 71.2675C191.681 71.4972 191.838 71.7121 192.077 71.7417C192.107 71.7491 192.144 71.7491 192.182 71.7565H192.189C192.197 71.7565 192.197 71.7565 192.197 71.7565C192.204 71.7565 192.204 71.7565 192.204 71.7565H192.212C192.212 71.7565 192.212 71.7565 192.219 71.7565H192.227H192.234H192.242H192.249H192.257H192.264C192.271 71.7565 192.271 71.7565 192.271 71.7565H192.279C192.286 71.7565 192.286 71.7565 192.286 71.7565C192.294 71.7565 192.294 71.7565 192.294 71.7565H192.301C192.309 71.7565 192.309 71.7565 192.309 71.7565C192.316 71.7565 192.316 71.7565 192.316 71.7565H193.797C194.029 71.7565 194.223 71.5713 194.223 71.3342C194.223 71.1045 194.029 70.9119 193.797 70.9119Z" fill="#E13B9F"/>
<path d="M209.26 70.9119H207.54C207.301 70.9119 207.106 71.1045 207.106 71.3342C207.106 71.5713 207.301 71.7565 207.54 71.7565H209.26C209.492 71.7565 209.686 71.5713 209.686 71.3342C209.686 71.1045 209.492 70.9119 209.26 70.9119Z" fill="#E13B9F"/>
<path d="M198.949 70.9119H197.229C196.99 70.9119 196.803 71.1045 196.803 71.3342C196.803 71.5713 196.99 71.7565 197.229 71.7565H198.949C199.188 71.7565 199.375 71.5713 199.375 71.3342C199.375 71.1045 199.188 70.9119 198.949 70.9119Z" fill="#E13B9F"/>
<path d="M204.101 70.9119H202.388C202.149 70.9119 201.955 71.1045 201.955 71.3342C201.955 71.5713 202.149 71.7565 202.388 71.7565H204.101C204.34 71.7565 204.534 71.5713 204.534 71.3342C204.534 71.1045 204.34 70.9119 204.101 70.9119Z" fill="#E13B9F"/>
<path d="M255.148 70.4673C255.029 70.4673 254.909 70.5192 254.827 70.6155C254.662 70.8082 254.423 70.9119 254.176 70.9119H253.937C253.698 70.9119 253.503 71.1045 253.503 71.3342C253.503 71.5713 253.698 71.7565 253.937 71.7565H254.184H254.191H254.199H254.206H254.214C254.221 71.7565 254.221 71.7565 254.221 71.7565C254.228 71.7565 254.228 71.7565 254.228 71.7565H254.236C254.236 71.7565 254.236 71.7565 254.243 71.7565C254.251 71.7565 254.251 71.7565 254.251 71.7565C254.251 71.7565 254.251 71.7565 254.258 71.7565C254.266 71.7565 254.266 71.7565 254.266 71.7565H254.273C254.273 71.7565 254.273 71.7565 254.281 71.7565H254.288C254.296 71.7565 254.296 71.7565 254.296 71.7565C254.296 71.7565 254.296 71.7565 254.303 71.7565H254.311H254.318H254.326C254.326 71.7565 254.326 71.7565 254.333 71.7565V71.7491H254.341C254.348 71.7491 254.348 71.7491 254.348 71.7491H254.356C254.356 71.7491 254.356 71.7491 254.363 71.7491H254.371H254.378C254.385 71.7491 254.385 71.7491 254.385 71.7491C254.385 71.7491 254.385 71.7491 254.393 71.7491C254.4 71.7491 254.4 71.7491 254.4 71.7491C254.4 71.7417 254.4 71.7417 254.4 71.7417C254.4 71.7417 254.4 71.7417 254.408 71.7417C254.415 71.7417 254.415 71.7417 254.415 71.7417H254.423C254.43 71.7417 254.43 71.7417 254.43 71.7417H254.438H254.445L254.453 71.7343H254.46H254.468C254.468 71.7343 254.468 71.7343 254.475 71.7343H254.483C254.49 71.7343 254.49 71.7343 254.49 71.7343C254.49 71.7343 254.49 71.7343 254.49 71.7269H254.498C254.505 71.7269 254.505 71.7269 254.505 71.7269C254.505 71.7269 254.505 71.7269 254.513 71.7269C254.513 71.7269 254.513 71.7269 254.52 71.7269C254.528 71.7269 254.528 71.7269 254.528 71.7269C254.528 71.7269 254.528 71.7269 254.528 71.7195C254.528 71.7195 254.528 71.7195 254.535 71.7195C254.535 71.7195 254.535 71.7195 254.543 71.7195H254.55C254.557 71.7195 254.557 71.7195 254.557 71.7195C254.565 71.7121 254.572 71.7121 254.572 71.7121C254.58 71.7121 254.58 71.7121 254.58 71.7121C254.587 71.7121 254.587 71.7121 254.587 71.7121C254.595 71.7121 254.595 71.7047 254.602 71.7047C254.602 71.7047 254.602 71.7047 254.61 71.7047H254.617C254.625 71.7047 254.625 71.6972 254.632 71.6972C254.64 71.6972 254.64 71.6972 254.64 71.6972C254.647 71.6972 254.655 71.6898 254.662 71.6898C254.67 71.6898 254.67 71.6898 254.67 71.6898C254.677 71.6824 254.685 71.6824 254.692 71.6824H254.7C254.7 71.675 254.7 71.675 254.7 71.675C254.707 71.675 254.714 71.675 254.722 71.6676C254.737 71.6676 254.744 71.6676 254.752 71.6602C255.036 71.5565 255.283 71.3861 255.477 71.1712C255.627 70.9934 255.612 70.7267 255.432 70.5711C255.35 70.5044 255.245 70.4673 255.148 70.4673Z" fill="#E13B9F"/>
<path d="M250.497 70.9119H248.778C248.538 70.9119 248.351 71.1045 248.351 71.3342C248.351 71.5713 248.538 71.7565 248.778 71.7565H250.497C250.737 71.7565 250.924 71.5713 250.924 71.3342C250.924 71.1045 250.737 70.9119 250.497 70.9119Z" fill="#E13B9F"/>
<path d="M245.345 70.9119H243.626C243.386 70.9119 243.192 71.1045 243.192 71.3342C243.192 71.5713 243.386 71.7565 243.626 71.7565H245.345C245.577 71.7565 245.772 71.5713 245.772 71.3342C245.772 71.1045 245.577 70.9119 245.345 70.9119Z" fill="#E13B9F"/>
<path d="M214.412 70.9119H212.692C212.46 70.9119 212.266 71.1045 212.266 71.3342C212.266 71.5713 212.46 71.7565 212.692 71.7565H214.412C214.651 71.7565 214.846 71.5713 214.846 71.3342C214.846 71.1045 214.651 70.9119 214.412 70.9119Z" fill="#E13B9F"/>
<path d="M224.723 70.9119H223.003C222.764 70.9119 222.577 71.1045 222.577 71.3342C222.577 71.5713 222.764 71.7565 223.003 71.7565H224.723C224.962 71.7565 225.149 71.5713 225.149 71.3342C225.149 71.1045 224.962 70.9119 224.723 70.9119Z" fill="#E13B9F"/>
<path d="M219.571 70.9119H217.851C217.612 70.9119 217.418 71.1045 217.418 71.3342C217.418 71.5713 217.612 71.7565 217.851 71.7565H219.571C219.803 71.7565 219.997 71.5713 219.997 71.3342C219.997 71.1045 219.803 70.9119 219.571 70.9119Z" fill="#E13B9F"/>
<path d="M240.186 70.9119H238.466C238.234 70.9119 238.04 71.1045 238.04 71.3342C238.04 71.5713 238.234 71.7565 238.466 71.7565H240.186C240.425 71.7565 240.62 71.5713 240.62 71.3342C240.62 71.1045 240.425 70.9119 240.186 70.9119Z" fill="#E13B9F"/>
<path d="M235.034 70.9119H233.315C233.075 70.9119 232.881 71.1045 232.881 71.3342C232.881 71.5713 233.075 71.7565 233.315 71.7565H235.034C235.266 71.7565 235.461 71.5713 235.461 71.3342C235.461 71.1045 235.266 70.9119 235.034 70.9119Z" fill="#E13B9F"/>
<path d="M229.875 72.7483H228.163C227.923 72.7483 227.729 72.9409 227.729 73.1706C227.729 73.4077 227.923 73.5929 228.163 73.5929H229.875C230.114 73.5929 230.309 73.4077 230.309 73.1706C230.309 72.9409 230.114 72.7483 229.875 72.7483Z" fill="#E13B9F"/>
<path d="M183.725 71.3342C183.486 71.3342 183.291 71.5269 183.291 71.7565V73.4532C183.291 73.6829 183.486 73.8755 183.725 73.8755C183.964 73.8755 184.151 73.6829 184.151 73.4532V71.7565C184.151 71.5269 183.964 71.3342 183.725 71.3342Z" fill="#E13B9F"/>
<path d="M262.768 71.3342C262.528 71.3342 262.334 71.5269 262.334 71.7565V73.4532C262.334 73.6829 262.528 73.8755 262.768 73.8755C262.999 73.8755 263.194 73.6829 263.194 73.4532V71.7565C263.194 71.5269 262.999 71.3342 262.768 71.3342Z" fill="#E13B9F"/>
<defs>
<linearGradient id="paint0_linear_453_30738" x1="242.585" y1="1.18048" x2="242.585" y2="29.0731" gradientUnits="userSpaceOnUse">
<stop stop-color="#E13B9F"/>
<stop offset="1" stop-color="#E13B9F" stop-opacity="0"/>
</linearGradient>
<linearGradient id="paint1_linear_453_30738" x1="281.261" y1="34.3707" x2="161.377" y2="34.1754" gradientUnits="userSpaceOnUse">
<stop stop-color="#E13B9F"/>
<stop offset="1"/>
</linearGradient>
<linearGradient id="paint2_linear_453_30738" x1="205.368" y1="81.0697" x2="205.368" y2="97.1399" gradientUnits="userSpaceOnUse">
<stop stop-color="#E13B9F"/>
<stop offset="1" stop-color="#E13B9F" stop-opacity="0"/>
</linearGradient>
<linearGradient id="paint3_linear_453_30738" x1="154.771" y1="67.3439" x2="284.006" y2="66.4573" gradientUnits="userSpaceOnUse">
<stop stop-color="#E13B9F"/>
<stop offset="1"/>
</linearGradient>
</defs>
</svg>
