<svg width="326" height="166" viewBox="0 0 326 166" fill="none" xmlns="http://www.w3.org/2000/svg">
<path d="M35.7853 65.6696H19.6489V56.2017H63.6262V65.6696H47.4898V106.546H35.7853V65.6696Z" fill="black"/>
<path d="M62.0928 56.2017H73.7973V106.546H62.0928V56.2017Z" fill="black"/>
<path d="M102.098 107.397C96.9845 107.397 92.3396 106.291 88.1776 104.052C84.0015 101.827 80.7345 98.7509 78.3481 94.8106C75.9617 90.8421 74.7686 86.3632 74.7686 81.3742C74.7686 76.3851 75.9617 71.9063 78.3481 67.9377C80.7345 63.9691 84.0015 60.8793 88.1776 58.6399C92.3396 56.4146 97.0129 55.2949 102.212 55.2949C106.558 55.2949 110.507 56.0745 114.03 57.6194C117.581 59.1785 120.564 61.3895 122.95 64.2526L115.45 71.1692C112.041 67.2432 107.808 65.2731 102.78 65.2731C99.6265 65.2731 96.8282 65.9534 94.3708 67.314C91.9419 68.6747 90.0526 70.5881 88.689 73.0401C87.3254 75.4638 86.6436 78.2418 86.6436 81.3742C86.6436 84.4782 87.3254 87.2562 88.689 89.7082C90.0526 92.1744 91.9419 94.0736 94.3708 95.4343C96.8282 96.7949 99.6265 97.4753 102.78 97.4753C107.808 97.4753 112.041 95.491 115.45 91.5224L122.95 98.4391C120.564 101.359 117.581 103.584 114.03 105.129C110.465 106.631 106.487 107.397 102.098 107.397Z" fill="black"/>
<path d="M141.411 86.7597L134.649 93.7898V106.546H123.001V56.2017H134.649V79.7297L156.979 56.2017H169.933L149.024 78.6525L171.183 106.546H157.547L141.411 86.7597Z" fill="black"/>
<path d="M207.649 97.1914V106.546H168.558V56.2017H206.739V65.5562H180.205V76.4981H203.614V85.5125H180.205V97.1914H207.649Z" fill="black"/>
<path d="M219.594 65.6696H203.458V56.2017H247.435V65.6696H231.299V106.546H219.594V65.6696Z" fill="black"/>
<mask id="mask0_469_38304" style="mask-type:luminance" maskUnits="userSpaceOnUse" x="192" y="43" width="8" height="7">
<path d="M192.727 43.541H200V49.2955H192.727V43.541Z" fill="white"/>
</mask>
<g mask="url(#mask0_469_38304)">
<path d="M194.702 45.1C194.332 45.3551 194.247 45.8654 194.517 46.2339L196.421 48.8702C196.577 49.0969 196.832 49.2103 197.088 49.2103C197.259 49.2103 197.415 49.1678 197.571 49.0686C197.926 48.7993 198.011 48.289 197.756 47.9347L195.852 45.2843C195.582 44.9158 195.071 44.8307 194.702 45.1Z" fill="black"/>
</g>
<path d="M188.992 37.1627C188.622 37.4178 188.537 37.9281 188.807 38.2966L190.71 40.9329C190.867 41.1596 191.122 41.273 191.378 41.273C191.534 41.273 191.705 41.2305 191.847 41.1313C192.216 40.862 192.301 40.3518 192.046 39.9974L190.142 37.347C189.872 36.9785 189.361 36.9076 188.992 37.1627Z" fill="black"/>
<path d="M183.281 29.2257C182.912 29.495 182.827 29.9911 183.082 30.3596L184.986 33.0101C185.156 33.2227 185.398 33.3502 185.653 33.3502C185.824 33.3502 185.994 33.2935 186.136 33.1943C186.506 32.9392 186.591 32.429 186.321 32.0604L184.417 29.4242C184.162 29.0557 183.65 28.9706 183.281 29.2257Z" fill="black"/>
<path d="M177.571 21.2887C177.202 21.558 177.116 22.0683 177.372 22.4226L179.275 25.0731C179.432 25.2998 179.687 25.4132 179.943 25.4132C180.114 25.4132 180.284 25.3565 180.426 25.2573C180.795 25.0022 180.881 24.4919 180.611 24.1234L178.707 21.4872C178.437 21.1187 177.926 21.0336 177.571 21.2887Z" fill="black"/>
<mask id="mask1_469_38304" style="mask-type:luminance" maskUnits="userSpaceOnUse" x="157" y="0" width="69" height="50">
<path d="M157.514 0.793945H225.455V49.2957H157.514V0.793945Z" fill="white"/>
</mask>
<g mask="url(#mask1_469_38304)">
<path d="M172.613 15.818L173.565 17.1362C173.721 17.363 173.977 17.4763 174.233 17.4763C174.403 17.4763 174.559 17.4338 174.701 17.3346C175.071 17.0653 175.156 16.5551 174.9 16.2007L173.949 14.8684L187.826 5.00367C188.522 4.49342 189.574 4.67767 190.071 5.37218L192.045 8.10766L187.869 11.0841C187.13 11.6085 186.96 12.6148 187.486 13.3519L192.301 20.0276C192.557 20.3819 192.94 20.6229 193.366 20.6937C193.807 20.7646 194.233 20.6654 194.588 20.4103L198.764 17.4338L201.676 21.4874L197.5 24.4639C196.761 24.9741 196.591 25.9946 197.116 26.7175L201.932 33.4074C202.187 33.7617 202.571 34.0026 202.997 34.0735C203.437 34.1302 203.878 34.031 204.233 33.79L208.395 30.8136L211.321 34.8531L207.13 37.8295C206.406 38.3539 206.236 39.3744 206.761 40.0972L211.576 46.7871C211.818 47.1415 212.201 47.3683 212.642 47.4391C213.068 47.51 213.508 47.4108 213.863 47.1556L218.04 44.1934L220.951 48.2328L216.761 51.2093C216.037 51.7337 215.866 52.74 216.392 53.4629L217.542 55.0786H221.562L220 52.8959L224.19 49.9337C224.915 49.4092 225.085 48.3887 224.559 47.6659L219.744 40.976C219.488 40.6217 219.105 40.3949 218.679 40.324C218.253 40.2532 217.812 40.3524 217.457 40.6075L213.281 43.5697L210.369 39.5303L214.559 36.5539C215.284 36.0295 215.454 35.0231 214.929 34.2861L210.113 27.5962C209.858 27.2561 209.474 27.0151 209.048 26.9442C208.622 26.8734 208.182 26.9726 207.826 27.2277L203.65 30.19L200.738 26.1505L204.915 23.1741C205.653 22.6638 205.824 21.6434 205.298 20.9205L200.483 14.2306C200.227 13.8763 199.843 13.6353 199.417 13.5645C198.991 13.5078 198.551 13.5928 198.196 13.8479L194.02 16.8244L191.108 12.7849L195.284 9.80848C196.022 9.28406 196.193 8.26357 195.667 7.54072L192.741 3.4871C191.221 1.37525 188.04 0.850832 185.909 2.35322L111.804 55.0786H117.415L172.613 15.818Z" fill="url(#paint0_linear_469_38304)"/>
</g>
<path d="M44.5237 39.0259H48.3305V49.7977C46.9668 50.9316 45.3475 51.8245 43.5009 52.4624C41.6828 53.0576 39.7793 53.3695 37.8191 53.3695C35.0066 53.3695 32.4782 52.7742 30.2055 51.5553C27.9612 50.308 26.1998 48.6072 24.9214 46.4528C23.6714 44.2984 23.0464 41.8889 23.0464 39.196C23.0464 36.5172 23.6714 34.0935 24.9214 31.9391C26.1998 29.7564 27.9896 28.0556 30.2623 26.8367C32.535 25.6319 35.0634 25.0225 37.8759 25.0225C40.106 25.0225 42.1373 25.391 43.9555 26.0996C45.7737 26.8225 47.3078 27.8855 48.5578 29.2745L46.1146 31.7124C43.8703 29.6005 41.1856 28.5375 38.0464 28.5375C35.9157 28.5375 34.0265 28.991 32.3646 29.8981C30.6884 30.8052 29.3674 32.0809 28.3873 33.6966C27.4356 35.3266 26.9668 37.155 26.9668 39.196C26.9668 41.2086 27.4356 43.0228 28.3873 44.6386C29.3674 46.2685 30.6884 47.53 32.3646 48.4371C34.0265 49.3442 35.9015 49.7977 37.9896 49.7977C40.4896 49.7977 42.6629 49.2166 44.5237 48.0402V39.0259Z" fill="black"/>
<path d="M64.1472 53.3695C61.3347 53.3695 58.8063 52.7742 56.5336 51.5553C54.2893 50.308 52.5279 48.6072 51.2495 46.4528C49.9995 44.2701 49.3745 41.8464 49.3745 39.196C49.3745 36.5172 49.9995 34.0935 51.2495 31.9391C52.5279 29.7848 54.2893 28.1123 56.5336 26.8934C58.8063 25.6461 61.3347 25.0225 64.1472 25.0225C66.9029 25.0225 69.4029 25.6461 71.6472 26.8934C73.92 28.1123 75.6813 29.7848 76.9313 31.9391C78.2097 34.0935 78.8631 36.5172 78.8631 39.196C78.8631 41.8889 78.2097 44.2984 76.9313 46.4528C75.6813 48.6072 73.92 50.308 71.6472 51.5553C69.4029 52.7742 66.9029 53.3695 64.1472 53.3695ZM64.1472 49.7977C66.1927 49.7977 68.0109 49.3442 69.6018 48.4371C71.2211 47.53 72.5137 46.2685 73.4654 44.6386C74.4029 43.0228 74.8859 41.2086 74.8859 39.196C74.8859 37.1975 74.4029 35.3833 73.4654 33.7533C72.5137 32.1376 71.2211 30.8619 69.6018 29.9548C68.0109 29.0194 66.1927 28.5375 64.1472 28.5375C62.1018 28.5375 60.241 29.0194 58.5791 29.9548C56.9455 30.8619 55.6529 32.1376 54.7154 33.7533C53.7637 35.3833 53.295 37.1975 53.295 39.196C53.295 41.2086 53.7637 43.0228 54.7154 44.6386C55.6529 46.2685 56.9455 47.53 58.5791 48.4371C60.241 49.3442 62.1018 49.7977 64.1472 49.7977Z" fill="black"/>
<path d="M80.6157 25.3057H84.593V49.5707H99.6498V53.029H80.6157V25.3057Z" fill="black"/>
<path d="M99.8853 25.3057H111.59C114.544 25.3057 117.158 25.901 119.431 27.0632C121.703 28.2396 123.465 29.8837 124.715 31.9956C125.965 34.0791 126.59 36.4744 126.59 39.1957C126.59 41.917 125.965 44.3407 124.715 46.4525C123.465 48.536 121.703 50.166 119.431 51.3282C117.158 52.4621 114.544 53.029 111.59 53.029H99.8853V25.3057ZM111.363 49.5707C113.593 49.5707 115.567 49.1455 117.272 48.2667C118.976 47.4021 120.283 46.1974 121.192 44.6383C122.13 43.0509 122.613 41.2367 122.613 39.1957C122.613 37.1264 122.13 35.3122 121.192 33.7531C120.283 32.1656 118.976 30.9467 117.272 30.068C115.567 29.2034 113.593 28.764 111.363 28.764H103.863V49.5707H111.363Z" fill="black"/>
<path d="M148.525 49.5707V53.029H128.355V25.3057H147.957V28.764H132.332V37.2681H146.253V40.6697H132.332V49.5707H148.525Z" fill="black"/>
<path d="M174.502 25.3057V53.029H171.263L154.616 32.3924V53.029H150.638V25.3057H153.934L170.582 45.999V25.3057H174.502Z" fill="black"/>
<path d="M92.628 132.862C92.7985 132.862 92.9689 132.806 93.111 132.706C93.4803 132.451 93.5655 131.941 93.2956 131.573L91.5485 129.149H89.9717C89.8865 129.39 89.9007 129.659 90.057 129.872L91.9604 132.522C92.1308 132.749 92.3723 132.862 92.628 132.862Z" fill="black"/>
<path d="M98.352 140.799C98.5083 140.799 98.6788 140.743 98.8208 140.643C99.1901 140.388 99.2753 139.878 99.0197 139.51L97.102 136.859C96.8464 136.505 96.335 136.42 95.9657 136.675C95.5964 136.93 95.5111 137.44 95.781 137.809L97.6844 140.459C97.8407 140.672 98.0964 140.799 98.352 140.799Z" fill="black"/>
<mask id="mask2_469_38304" style="mask-type:luminance" maskUnits="userSpaceOnUse" x="61" y="126" width="74" height="35">
<path d="M61.8184 126.995H134.546V160.019H61.8184V126.995Z" fill="white"/>
</mask>
<g mask="url(#mask2_469_38304)">
<path d="M103.438 145.647L102.827 144.796C102.557 144.442 102.046 144.357 101.677 144.612C101.307 144.867 101.222 145.378 101.492 145.746L102.103 146.597L88.2248 156.475C87.5146 156.972 86.4777 156.801 85.9805 156.107L83.9919 153.343L88.168 150.367C88.9066 149.842 89.0771 148.836 88.5515 148.099L83.7362 141.409C83.4805 141.069 83.097 140.828 82.6709 140.757C82.2305 140.686 81.7902 140.785 81.4351 141.04L77.2731 144.003L74.3612 139.963L78.5373 136.987C79.276 136.477 79.4322 135.456 78.9066 134.733L74.8868 129.149H69.7305L67.6282 130.637L66.5629 129.149H62.5288L65.9237 133.855C66.1794 134.195 66.5629 134.436 66.989 134.507C67.4152 134.577 67.8555 134.478 68.2106 134.223L72.3868 131.261L75.2987 135.3L71.1226 138.277C70.3839 138.787 70.2135 139.807 70.739 140.53L75.5544 147.22C75.8101 147.574 76.1936 147.815 76.6197 147.886C77.0459 147.943 77.4862 147.844 77.8413 147.603L82.0174 144.626L84.9294 148.666L80.7532 151.642C80.0146 152.167 79.8442 153.173 80.3697 153.91L83.3101 157.992C84.2191 159.268 85.7106 160.019 87.2873 160.019C88.3101 160.019 89.3044 159.707 90.1282 159.112L132.273 129.149H126.648L103.438 145.647Z" fill="url(#paint1_linear_469_38304)"/>
</g>
<mask id="mask3_469_38304" style="mask-type:luminance" maskUnits="userSpaceOnUse" x="33" y="108" width="200" height="19">
<path d="M33.0825 108.243H232.727V126.995H33.0825V108.243Z" fill="white"/>
</mask>
<g mask="url(#mask3_469_38304)">
<path d="M224.887 31.6494H38.0969C35.3838 31.6494 33.1821 33.8321 33.1821 36.5251V41.5425C33.1821 42.4496 33.9208 43.1725 34.8157 43.1725H40.0145V48.1899H34.8157C33.9208 48.1899 33.1821 48.9127 33.1821 49.8198V58.083C33.1821 58.9901 33.9208 59.7129 34.8157 59.7129H40.0145V64.7304H34.8157C33.9208 64.7304 33.1821 65.4532 33.1821 66.3603V74.6235C33.1821 75.5306 33.9208 76.2534 34.8157 76.2534H40.0145V81.2708H34.8157C33.9208 81.2708 33.1821 81.9937 33.1821 82.9008V91.1639C33.1821 92.071 33.9208 92.7939 34.8157 92.7939H40.0145V97.8113H34.8157C33.9208 97.8113 33.1821 98.5341 33.1821 99.4413V107.704C33.1821 108.597 33.9208 109.334 34.8157 109.334H40.0145V114.352H34.8157C33.9208 114.352 33.1821 115.075 33.1821 115.982V121.027C33.1821 123.706 35.3838 125.903 38.0969 125.903H224.887C227.6 125.903 229.801 123.706 229.801 121.027V115.982C229.801 115.075 229.077 114.352 228.168 114.352H222.983V109.334H228.168C229.077 109.334 229.801 108.597 229.801 107.704V99.4413C229.801 98.5341 229.077 97.8113 228.168 97.8113H222.983V92.7939H228.168C229.077 92.7939 229.801 92.071 229.801 91.1639V82.9008C229.801 81.9937 229.077 81.2708 228.168 81.2708H222.983V76.2534H228.168C229.077 76.2534 229.801 75.5306 229.801 74.6235V66.3603C229.801 65.4532 229.077 64.7304 228.168 64.7304H222.983V59.7129H228.168C229.077 59.7129 229.801 58.9901 229.801 58.083V49.8198C229.801 48.9127 229.077 48.1899 228.168 48.1899H222.983V43.1725H228.168C229.077 43.1725 229.801 42.4496 229.801 41.5425V36.5251C229.801 33.8321 227.6 31.6494 224.887 31.6494ZM226.534 39.9267H221.336C220.441 39.9267 219.702 40.6496 219.702 41.5425V49.8198C219.702 50.7128 220.441 51.4356 221.336 51.4356H226.534V56.4672H221.336C220.441 56.4672 219.702 57.1901 219.702 58.083V66.3603C219.702 67.2532 220.441 67.9761 221.336 67.9761H226.534V73.0077H221.336C220.441 73.0077 219.702 73.7305 219.702 74.6235V82.9008C219.702 83.7937 220.441 84.5166 221.336 84.5166H226.534V89.5482H221.336C220.441 89.5482 219.702 90.271 219.702 91.1639V99.4413C219.702 100.334 220.441 101.057 221.336 101.057H226.534V106.074H221.336C220.441 106.074 219.702 106.811 219.702 107.704V115.982C219.702 116.875 220.441 117.598 221.336 117.598H226.534V121.027C226.534 121.92 225.796 122.643 224.887 122.643H207.685V121.027C207.685 120.574 207.316 120.205 206.875 120.205C206.421 120.205 206.051 120.574 206.051 121.027V122.643H56.9463V121.027C56.9463 120.574 56.577 120.205 56.1225 120.205C55.6679 120.205 55.2986 120.574 55.2986 121.027V122.643H38.0969C37.202 122.643 36.4634 121.92 36.4634 121.027V117.598H41.648C42.5571 117.598 43.2816 116.875 43.2816 115.982V107.704C43.2816 106.811 42.5571 106.074 41.648 106.074H36.4634V101.057H41.648C42.5571 101.057 43.2816 100.334 43.2816 99.4413V91.1639C43.2816 90.271 42.5571 89.5482 41.648 89.5482H36.4634V84.5166H41.648C42.5571 84.5166 43.2816 83.7937 43.2816 82.9008V74.6235C43.2816 73.7305 42.5571 73.0077 41.648 73.0077H36.4634V67.9761H41.648C42.5571 67.9761 43.2816 67.2532 43.2816 66.3603V58.083C43.2816 57.1901 42.5571 56.4672 41.648 56.4672H36.4634V51.4356H41.648C42.5571 51.4356 43.2816 50.7128 43.2816 49.8198V41.5425C43.2816 40.6496 42.5571 39.9267 41.648 39.9267H36.4634V36.5251C36.4634 35.6322 37.202 34.8951 38.0969 34.8951H55.2986V36.5251C55.2986 36.9786 55.6679 37.333 56.1225 37.333C56.577 37.333 56.9463 36.9786 56.9463 36.5251V34.8951H206.051V36.5251C206.051 36.9786 206.421 37.333 206.875 37.333C207.316 37.333 207.685 36.9786 207.685 36.5251V34.8951H224.887C225.796 34.8951 226.534 35.6322 226.534 36.5251V39.9267Z" fill="url(#paint2_linear_469_38304)"/>
</g>
<path d="M75.3267 109.646H72.5142C72.429 109.646 72.358 109.646 72.2869 109.632C72.2443 109.632 72.2017 109.618 72.1591 109.618C71.7614 109.618 71.4063 109.915 71.3494 110.326C71.2926 110.766 71.6051 111.177 72.0455 111.248C72.1165 111.248 72.1733 111.262 72.2443 111.262C72.2443 111.262 72.2443 111.262 72.2585 111.262C72.2585 111.262 72.2585 111.262 72.2727 111.262C72.2727 111.262 72.2727 111.262 72.2869 111.262H72.3011C72.3011 111.262 72.3011 111.262 72.3154 111.262C72.3154 111.262 72.3154 111.262 72.3296 111.262C72.3296 111.262 72.3296 111.262 72.3438 111.262C72.3438 111.276 72.3438 111.276 72.3438 111.276C72.3438 111.276 72.3438 111.276 72.358 111.276C72.358 111.276 72.358 111.276 72.3722 111.276H72.3864C72.4006 111.276 72.4006 111.276 72.4006 111.276C72.4148 111.276 72.4148 111.276 72.4148 111.276H72.429H72.4432H72.4574C72.4574 111.276 72.4574 111.276 72.4716 111.276C72.4858 111.276 72.4858 111.276 72.4858 111.276C72.4858 111.276 72.4858 111.276 72.5 111.276C72.5 111.276 72.5 111.276 72.5142 111.276H75.3267C75.7813 111.276 76.1506 110.907 76.1506 110.454C76.1506 110.015 75.7813 109.646 75.3267 109.646Z" fill="black"/>
<path d="M104.816 109.646H101.548C101.094 109.646 100.725 110.015 100.725 110.454C100.725 110.907 101.094 111.276 101.548 111.276H104.816C105.27 111.276 105.639 110.907 105.639 110.454C105.639 110.015 105.27 109.646 104.816 109.646Z" fill="black"/>
<path d="M85.1563 109.646H81.8751C81.4347 109.646 81.0654 110.015 81.0654 110.454C81.0654 110.907 81.4347 111.276 81.8751 111.276H85.1563C85.6109 111.276 85.9802 110.907 85.9802 110.454C85.9802 110.015 85.6109 109.646 85.1563 109.646Z" fill="black"/>
<path d="M94.9859 109.646H91.7189C91.2643 109.646 90.895 110.015 90.895 110.454C90.895 110.907 91.2643 111.276 91.7189 111.276H94.9859C95.4405 111.276 95.8098 110.907 95.8098 110.454C95.8098 110.015 95.4405 109.646 94.9859 109.646Z" fill="black"/>
<mask id="mask4_469_38304" style="mask-type:luminance" maskUnits="userSpaceOnUse" x="189" y="108" width="8" height="5">
<path d="M189.091 108.243H196.364V112.481H189.091V108.243Z" fill="white"/>
</mask>
<g mask="url(#mask4_469_38304)">
<path d="M192.344 108.796C192.116 108.796 191.889 108.895 191.719 109.079C191.406 109.434 190.952 109.646 190.483 109.646H190.028C189.574 109.646 189.204 110.015 189.204 110.454C189.204 110.908 189.574 111.276 190.028 111.276H190.483C190.497 111.276 190.497 111.276 190.497 111.276C190.497 111.276 190.497 111.276 190.511 111.276H190.525C190.525 111.276 190.525 111.276 190.54 111.276H190.554H190.568H190.582H190.596C190.596 111.276 190.596 111.276 190.611 111.276C190.625 111.276 190.625 111.276 190.625 111.276H190.639L190.653 111.262C190.653 111.262 190.653 111.262 190.667 111.262H190.682C190.696 111.262 190.696 111.262 190.696 111.262H190.71C190.71 111.262 190.71 111.262 190.724 111.262C190.724 111.262 190.724 111.262 190.738 111.262C190.738 111.262 190.738 111.262 190.753 111.262H190.767H190.781C190.781 111.262 190.781 111.262 190.795 111.262H190.809H190.824C190.824 111.262 190.824 111.262 190.824 111.248H190.838C190.838 111.248 190.838 111.248 190.852 111.248H190.866H190.88C190.895 111.248 190.895 111.248 190.895 111.248C190.895 111.248 190.895 111.248 190.909 111.248H190.923H190.952C190.952 111.234 190.952 111.234 190.952 111.234C190.966 111.234 190.966 111.234 190.966 111.234C190.966 111.234 190.966 111.234 190.98 111.234H190.994C191.008 111.234 191.008 111.234 191.008 111.234H191.023C191.023 111.234 191.023 111.234 191.037 111.234C191.037 111.234 191.037 111.234 191.037 111.22H191.051C191.065 111.22 191.065 111.22 191.065 111.22C191.079 111.22 191.079 111.22 191.079 111.22C191.079 111.22 191.079 111.22 191.094 111.22H191.108C191.122 111.205 191.122 111.205 191.122 111.205C191.122 111.205 191.122 111.205 191.136 111.205H191.15H191.165C191.179 111.205 191.179 111.205 191.179 111.191H191.193C191.193 111.191 191.193 111.191 191.207 111.191C191.207 111.191 191.207 111.191 191.221 111.191C191.236 111.191 191.236 111.191 191.25 111.191C191.25 111.177 191.25 111.177 191.25 111.177C191.264 111.177 191.264 111.177 191.264 111.177H191.278H191.292C191.292 111.177 191.292 111.177 191.307 111.177C191.307 111.177 191.307 111.177 191.307 111.163H191.321C191.321 111.163 191.321 111.163 191.335 111.163C191.335 111.163 191.349 111.163 191.363 111.149H191.378C191.392 111.149 191.406 111.135 191.42 111.135C191.434 111.135 191.434 111.135 191.434 111.135C191.449 111.135 191.463 111.12 191.463 111.12C191.477 111.12 191.477 111.12 191.477 111.12C191.491 111.12 191.491 111.12 191.491 111.12C191.505 111.106 191.52 111.106 191.534 111.106C191.548 111.092 191.562 111.092 191.591 111.078C192.13 110.894 192.599 110.568 192.969 110.142C193.267 109.802 193.224 109.292 192.883 108.994C192.727 108.867 192.528 108.796 192.344 108.796Z" fill="black"/>
</g>
<path d="M183.466 109.646H180.199C179.744 109.646 179.375 110.015 179.375 110.454C179.375 110.907 179.744 111.276 180.199 111.276H183.466C183.92 111.276 184.29 110.907 184.29 110.454C184.29 110.015 183.92 109.646 183.466 109.646Z" fill="black"/>
<path d="M173.636 109.646H170.355C169.915 109.646 169.545 110.015 169.545 110.454C169.545 110.907 169.915 111.276 170.355 111.276H173.636C174.091 111.276 174.46 110.907 174.46 110.454C174.46 110.015 174.091 109.646 173.636 109.646Z" fill="black"/>
<path d="M114.645 109.646H111.378C110.924 109.646 110.554 110.015 110.554 110.454C110.554 110.907 110.924 111.276 111.378 111.276H114.645C115.1 111.276 115.469 110.907 115.469 110.454C115.469 110.015 115.1 109.646 114.645 109.646Z" fill="black"/>
<path d="M134.318 109.646H131.037C130.582 109.646 130.213 110.015 130.213 110.454C130.213 110.907 130.582 111.276 131.037 111.276H134.318C134.773 111.276 135.128 110.907 135.128 110.454C135.128 110.015 134.773 109.646 134.318 109.646Z" fill="black"/>
<path d="M124.488 109.646H121.207C120.753 109.646 120.383 110.015 120.383 110.454C120.383 110.907 120.753 111.276 121.207 111.276H124.488C124.929 111.276 125.298 110.907 125.298 110.454C125.298 110.015 124.929 109.646 124.488 109.646Z" fill="black"/>
<path d="M163.807 109.646H160.525C160.071 109.646 159.716 110.015 159.716 110.454C159.716 110.907 160.071 111.276 160.525 111.276H163.807C164.261 111.276 164.631 110.907 164.631 110.454C164.631 110.015 164.261 109.646 163.807 109.646Z" fill="black"/>
<path d="M153.977 109.646H150.696C150.242 109.646 149.886 110.015 149.886 110.454C149.886 110.907 150.242 111.276 150.696 111.276H153.977C154.432 111.276 154.801 110.907 154.801 110.454C154.801 110.015 154.432 109.646 153.977 109.646Z" fill="black"/>
<path d="M144.148 109.646H140.867C140.412 109.646 140.043 110.015 140.043 110.454C140.043 110.907 140.412 111.276 140.867 111.276H144.148C144.602 111.276 144.972 110.907 144.972 110.454C144.972 110.015 144.602 109.646 144.148 109.646Z" fill="black"/>
<path d="M56.1222 110.454C55.6677 110.454 55.2983 110.823 55.2983 111.276V114.522C55.2983 114.975 55.6677 115.33 56.1222 115.33C56.5767 115.33 56.9461 114.975 56.9461 114.522V111.276C56.9461 110.823 56.5767 110.454 56.1222 110.454Z" fill="black"/>
<path d="M206.875 110.454C206.42 110.454 206.051 110.823 206.051 111.276V114.522C206.051 114.975 206.42 115.33 206.875 115.33C207.315 115.33 207.685 114.975 207.685 114.522V111.276C207.685 110.823 207.315 110.454 206.875 110.454Z" fill="black"/>
<path d="M138.5 143V134.096H135.056V133.2H142.98V134.096H139.536V143H138.5ZM148.392 143.084C147.141 143.084 146.156 142.725 145.438 142.006C144.719 141.287 144.36 140.223 144.36 138.814V133.2H145.396V138.772C145.396 139.929 145.657 140.783 146.18 141.334C146.702 141.885 147.44 142.16 148.392 142.16C149.353 142.16 150.095 141.885 150.618 141.334C151.14 140.783 151.402 139.929 151.402 138.772V133.2H152.41V138.814C152.41 140.223 152.05 141.287 151.332 142.006C150.622 142.725 149.642 143.084 148.392 143.084ZM158.234 143.084C157.506 143.084 156.806 142.967 156.134 142.734C155.471 142.491 154.958 142.183 154.594 141.81L155 141.012C155.345 141.348 155.807 141.633 156.386 141.866C156.974 142.09 157.59 142.202 158.234 142.202C158.85 142.202 159.349 142.127 159.732 141.978C160.124 141.819 160.408 141.609 160.586 141.348C160.772 141.087 160.866 140.797 160.866 140.48C160.866 140.097 160.754 139.789 160.53 139.556C160.315 139.323 160.03 139.141 159.676 139.01C159.321 138.87 158.929 138.749 158.5 138.646C158.07 138.543 157.641 138.436 157.212 138.324C156.782 138.203 156.386 138.044 156.022 137.848C155.667 137.652 155.378 137.395 155.154 137.078C154.939 136.751 154.832 136.327 154.832 135.804C154.832 135.319 154.958 134.875 155.21 134.474C155.471 134.063 155.868 133.737 156.4 133.494C156.932 133.242 157.613 133.116 158.444 133.116C158.994 133.116 159.54 133.195 160.082 133.354C160.623 133.503 161.09 133.713 161.482 133.984L161.132 134.81C160.712 134.53 160.264 134.325 159.788 134.194C159.321 134.063 158.868 133.998 158.43 133.998C157.842 133.998 157.356 134.077 156.974 134.236C156.591 134.395 156.306 134.609 156.12 134.88C155.942 135.141 155.854 135.44 155.854 135.776C155.854 136.159 155.961 136.467 156.176 136.7C156.4 136.933 156.689 137.115 157.044 137.246C157.408 137.377 157.804 137.493 158.234 137.596C158.663 137.699 159.088 137.811 159.508 137.932C159.937 138.053 160.329 138.212 160.684 138.408C161.048 138.595 161.337 138.847 161.552 139.164C161.776 139.481 161.888 139.897 161.888 140.41C161.888 140.886 161.757 141.329 161.496 141.74C161.234 142.141 160.833 142.468 160.292 142.72C159.76 142.963 159.074 143.084 158.234 143.084ZM170.511 143.084C169.783 143.084 169.083 142.967 168.411 142.734C167.748 142.491 167.235 142.183 166.871 141.81L167.277 141.012C167.622 141.348 168.084 141.633 168.663 141.866C169.251 142.09 169.867 142.202 170.511 142.202C171.127 142.202 171.626 142.127 172.009 141.978C172.401 141.819 172.686 141.609 172.863 141.348C173.05 141.087 173.143 140.797 173.143 140.48C173.143 140.097 173.031 139.789 172.807 139.556C172.592 139.323 172.308 139.141 171.953 139.01C171.598 138.87 171.206 138.749 170.777 138.646C170.348 138.543 169.918 138.436 169.489 138.324C169.06 138.203 168.663 138.044 168.299 137.848C167.944 137.652 167.655 137.395 167.431 137.078C167.216 136.751 167.109 136.327 167.109 135.804C167.109 135.319 167.235 134.875 167.487 134.474C167.748 134.063 168.145 133.737 168.677 133.494C169.209 133.242 169.89 133.116 170.721 133.116C171.272 133.116 171.818 133.195 172.359 133.354C172.9 133.503 173.367 133.713 173.759 133.984L173.409 134.81C172.989 134.53 172.541 134.325 172.065 134.194C171.598 134.063 171.146 133.998 170.707 133.998C170.119 133.998 169.634 134.077 169.251 134.236C168.868 134.395 168.584 134.609 168.397 134.88C168.22 135.141 168.131 135.44 168.131 135.776C168.131 136.159 168.238 136.467 168.453 136.7C168.677 136.933 168.966 137.115 169.321 137.246C169.685 137.377 170.082 137.493 170.511 137.596C170.94 137.699 171.365 137.811 171.785 137.932C172.214 138.053 172.606 138.212 172.961 138.408C173.325 138.595 173.614 138.847 173.829 139.164C174.053 139.481 174.165 139.897 174.165 140.41C174.165 140.886 174.034 141.329 173.773 141.74C173.512 142.141 173.11 142.468 172.569 142.72C172.037 142.963 171.351 143.084 170.511 143.084ZM183.59 133.2H184.612V143H183.59V133.2ZM177.458 143H176.422V133.2H177.458V143ZM183.688 138.478H177.346V137.568H183.688V138.478ZM192.095 143.084C191.358 143.084 190.672 142.963 190.037 142.72C189.412 142.468 188.866 142.118 188.399 141.67C187.942 141.213 187.582 140.685 187.321 140.088C187.069 139.481 186.943 138.819 186.943 138.1C186.943 137.381 187.069 136.723 187.321 136.126C187.582 135.519 187.942 134.992 188.399 134.544C188.866 134.087 189.412 133.737 190.037 133.494C190.662 133.242 191.348 133.116 192.095 133.116C192.832 133.116 193.514 133.242 194.139 133.494C194.764 133.737 195.306 134.082 195.763 134.53C196.23 134.978 196.589 135.505 196.841 136.112C197.102 136.719 197.233 137.381 197.233 138.1C197.233 138.819 197.102 139.481 196.841 140.088C196.589 140.695 196.23 141.222 195.763 141.67C195.306 142.118 194.764 142.468 194.139 142.72C193.514 142.963 192.832 143.084 192.095 143.084ZM192.095 142.16C192.683 142.16 193.224 142.062 193.719 141.866C194.223 141.661 194.657 141.376 195.021 141.012C195.394 140.639 195.684 140.209 195.889 139.724C196.094 139.229 196.197 138.688 196.197 138.1C196.197 137.512 196.094 136.975 195.889 136.49C195.684 135.995 195.394 135.566 195.021 135.202C194.657 134.829 194.223 134.544 193.719 134.348C193.224 134.143 192.683 134.04 192.095 134.04C191.507 134.04 190.961 134.143 190.457 134.348C189.953 134.544 189.514 134.829 189.141 135.202C188.777 135.566 188.488 135.995 188.273 136.49C188.068 136.975 187.965 137.512 187.965 138.1C187.965 138.679 188.068 139.215 188.273 139.71C188.488 140.205 188.777 140.639 189.141 141.012C189.514 141.376 189.953 141.661 190.457 141.866C190.961 142.062 191.507 142.16 192.095 142.16ZM201.494 143L198.19 133.2H199.254L202.348 142.426H201.816L205.008 133.2H205.96L209.11 142.426H208.606L211.728 133.2H212.722L209.418 143H208.326L205.316 134.25H205.596L202.572 143H201.494ZM217.323 143.084C216.595 143.084 215.895 142.967 215.223 142.734C214.561 142.491 214.047 142.183 213.683 141.81L214.089 141.012C214.435 141.348 214.897 141.633 215.475 141.866C216.063 142.09 216.679 142.202 217.323 142.202C217.939 142.202 218.439 142.127 218.821 141.978C219.213 141.819 219.498 141.609 219.675 141.348C219.862 141.087 219.955 140.797 219.955 140.48C219.955 140.097 219.843 139.789 219.619 139.556C219.405 139.323 219.12 139.141 218.765 139.01C218.411 138.87 218.019 138.749 217.589 138.646C217.16 138.543 216.731 138.436 216.301 138.324C215.872 138.203 215.475 138.044 215.111 137.848C214.757 137.652 214.467 137.395 214.243 137.078C214.029 136.751 213.921 136.327 213.921 135.804C213.921 135.319 214.047 134.875 214.299 134.474C214.561 134.063 214.957 133.737 215.489 133.494C216.021 133.242 216.703 133.116 217.533 133.116C218.084 133.116 218.63 133.195 219.171 133.354C219.713 133.503 220.179 133.713 220.571 133.984L220.221 134.81C219.801 134.53 219.353 134.325 218.877 134.194C218.411 134.063 217.958 133.998 217.519 133.998C216.931 133.998 216.446 134.077 216.063 134.236C215.681 134.395 215.396 134.609 215.209 134.88C215.032 135.141 214.943 135.44 214.943 135.776C214.943 136.159 215.051 136.467 215.265 136.7C215.489 136.933 215.779 137.115 216.133 137.246C216.497 137.377 216.894 137.493 217.323 137.596C217.753 137.699 218.177 137.811 218.597 137.932C219.027 138.053 219.419 138.212 219.773 138.408C220.137 138.595 220.427 138.847 220.641 139.164C220.865 139.481 220.977 139.897 220.977 140.41C220.977 140.886 220.847 141.329 220.585 141.74C220.324 142.141 219.923 142.468 219.381 142.72C218.849 142.963 218.163 143.084 217.323 143.084ZM227.823 137.946H233.003V138.842H227.823V137.946ZM227.935 143H226.899V133.2H233.619V134.096H227.935V143ZM233.725 143L238.205 133.2H239.227L243.707 143H242.615L238.499 133.802H238.919L234.803 143H233.725ZM235.489 140.382L235.797 139.542H241.495L241.803 140.382H235.489ZM247.609 143L243.269 133.2H244.389L248.449 142.426H247.833L251.921 133.2H252.971L248.631 143H247.609ZM258.595 143.084C257.858 143.084 257.172 142.963 256.537 142.72C255.912 142.468 255.366 142.118 254.899 141.67C254.442 141.213 254.082 140.685 253.821 140.088C253.569 139.481 253.443 138.819 253.443 138.1C253.443 137.381 253.569 136.723 253.821 136.126C254.082 135.519 254.442 134.992 254.899 134.544C255.366 134.087 255.912 133.737 256.537 133.494C257.162 133.242 257.848 133.116 258.595 133.116C259.332 133.116 260.014 133.242 260.639 133.494C261.264 133.737 261.806 134.082 262.263 134.53C262.73 134.978 263.089 135.505 263.341 136.112C263.602 136.719 263.733 137.381 263.733 138.1C263.733 138.819 263.602 139.481 263.341 140.088C263.089 140.695 262.73 141.222 262.263 141.67C261.806 142.118 261.264 142.468 260.639 142.72C260.014 142.963 259.332 143.084 258.595 143.084ZM258.595 142.16C259.183 142.16 259.724 142.062 260.219 141.866C260.723 141.661 261.157 141.376 261.521 141.012C261.894 140.639 262.184 140.209 262.389 139.724C262.594 139.229 262.697 138.688 262.697 138.1C262.697 137.512 262.594 136.975 262.389 136.49C262.184 135.995 261.894 135.566 261.521 135.202C261.157 134.829 260.723 134.544 260.219 134.348C259.724 134.143 259.183 134.04 258.595 134.04C258.007 134.04 257.461 134.143 256.957 134.348C256.453 134.544 256.014 134.829 255.641 135.202C255.277 135.566 254.988 135.995 254.773 136.49C254.568 136.975 254.465 137.512 254.465 138.1C254.465 138.679 254.568 139.215 254.773 139.71C254.988 140.205 255.277 140.639 255.641 141.012C256.014 141.376 256.453 141.661 256.957 141.866C257.461 142.062 258.007 142.16 258.595 142.16ZM266.055 143V133.2H269.723C270.554 133.2 271.268 133.335 271.865 133.606C272.462 133.867 272.92 134.25 273.237 134.754C273.564 135.249 273.727 135.851 273.727 136.56C273.727 137.251 273.564 137.848 273.237 138.352C272.92 138.847 272.462 139.229 271.865 139.5C271.268 139.761 270.554 139.892 269.723 139.892H266.629L267.091 139.416V143H266.055ZM272.747 143L270.227 139.444H271.347L273.881 143H272.747ZM267.091 139.5L266.629 139.01H269.695C270.675 139.01 271.417 138.795 271.921 138.366C272.434 137.937 272.691 137.335 272.691 136.56C272.691 135.776 272.434 135.169 271.921 134.74C271.417 134.311 270.675 134.096 269.695 134.096H266.629L267.091 133.606V139.5ZM276.172 143V133.2H277.208V143H276.172ZM282.301 143V134.096H278.857V133.2H286.781V134.096H283.337V143H282.301ZM292.583 143.084C291.846 143.084 291.16 142.963 290.525 142.72C289.9 142.468 289.354 142.118 288.887 141.67C288.43 141.213 288.07 140.685 287.809 140.088C287.557 139.481 287.431 138.819 287.431 138.1C287.431 137.381 287.557 136.723 287.809 136.126C288.07 135.519 288.43 134.992 288.887 134.544C289.354 134.087 289.9 133.737 290.525 133.494C291.15 133.242 291.836 133.116 292.583 133.116C293.32 133.116 294.002 133.242 294.627 133.494C295.252 133.737 295.794 134.082 296.251 134.53C296.718 134.978 297.077 135.505 297.329 136.112C297.59 136.719 297.721 137.381 297.721 138.1C297.721 138.819 297.59 139.481 297.329 140.088C297.077 140.695 296.718 141.222 296.251 141.67C295.794 142.118 295.252 142.468 294.627 142.72C294.002 142.963 293.32 143.084 292.583 143.084ZM292.583 142.16C293.171 142.16 293.712 142.062 294.207 141.866C294.711 141.661 295.145 141.376 295.509 141.012C295.882 140.639 296.172 140.209 296.377 139.724C296.582 139.229 296.685 138.688 296.685 138.1C296.685 137.512 296.582 136.975 296.377 136.49C296.172 135.995 295.882 135.566 295.509 135.202C295.145 134.829 294.711 134.544 294.207 134.348C293.712 134.143 293.171 134.04 292.583 134.04C291.995 134.04 291.449 134.143 290.945 134.348C290.441 134.544 290.002 134.829 289.629 135.202C289.265 135.566 288.976 135.995 288.761 136.49C288.556 136.975 288.453 137.512 288.453 138.1C288.453 138.679 288.556 139.215 288.761 139.71C288.976 140.205 289.265 140.639 289.629 141.012C290.002 141.376 290.441 141.661 290.945 141.866C291.449 142.062 291.995 142.16 292.583 142.16ZM302.745 143.084C302.017 143.084 301.317 142.967 300.645 142.734C299.983 142.491 299.469 142.183 299.105 141.81L299.511 141.012C299.857 141.348 300.319 141.633 300.897 141.866C301.485 142.09 302.101 142.202 302.745 142.202C303.361 142.202 303.861 142.127 304.243 141.978C304.635 141.819 304.92 141.609 305.097 141.348C305.284 141.087 305.377 140.797 305.377 140.48C305.377 140.097 305.265 139.789 305.041 139.556C304.827 139.323 304.542 139.141 304.187 139.01C303.833 138.87 303.441 138.749 303.011 138.646C302.582 138.543 302.153 138.436 301.723 138.324C301.294 138.203 300.897 138.044 300.533 137.848C300.179 137.652 299.889 137.395 299.665 137.078C299.451 136.751 299.343 136.327 299.343 135.804C299.343 135.319 299.469 134.875 299.721 134.474C299.983 134.063 300.379 133.737 300.911 133.494C301.443 133.242 302.125 133.116 302.955 133.116C303.506 133.116 304.052 133.195 304.593 133.354C305.135 133.503 305.601 133.713 305.993 133.984L305.643 134.81C305.223 134.53 304.775 134.325 304.299 134.194C303.833 134.063 303.38 133.998 302.941 133.998C302.353 133.998 301.868 134.077 301.485 134.236C301.103 134.395 300.818 134.609 300.631 134.88C300.454 135.141 300.365 135.44 300.365 135.776C300.365 136.159 300.473 136.467 300.687 136.7C300.911 136.933 301.201 137.115 301.555 137.246C301.919 137.377 302.316 137.493 302.745 137.596C303.175 137.699 303.599 137.811 304.019 137.932C304.449 138.053 304.841 138.212 305.195 138.408C305.559 138.595 305.849 138.847 306.063 139.164C306.287 139.481 306.399 139.897 306.399 140.41C306.399 140.886 306.269 141.329 306.007 141.74C305.746 142.141 305.345 142.468 304.803 142.72C304.271 142.963 303.585 143.084 302.745 143.084ZM137.52 154.582H142.7V155.464H137.52V154.582ZM137.632 159.104H143.526V160H136.596V150.2H143.316V151.096H137.632V159.104ZM145.961 160V150.2H146.815L153.577 158.712H153.129V150.2H154.151V160H153.297L146.549 151.488H146.997V160H145.961ZM164.962 160.084C163.711 160.084 162.727 159.725 162.008 159.006C161.289 158.287 160.93 157.223 160.93 155.814V150.2H161.966V155.772C161.966 156.929 162.227 157.783 162.75 158.334C163.273 158.885 164.01 159.16 164.962 159.16C165.923 159.16 166.665 158.885 167.188 158.334C167.711 157.783 167.972 156.929 167.972 155.772V150.2H168.98V155.814C168.98 157.223 168.621 158.287 167.902 159.006C167.193 159.725 166.213 160.084 164.962 160.084ZM172.102 160V150.2H172.956L179.718 158.712H179.27V150.2H180.292V160H179.438L172.69 151.488H173.138V160H172.102ZM189.857 160.084C189.129 160.084 188.429 159.967 187.757 159.734C187.094 159.491 186.581 159.183 186.217 158.81L186.623 158.012C186.968 158.348 187.43 158.633 188.009 158.866C188.597 159.09 189.213 159.202 189.857 159.202C190.473 159.202 190.972 159.127 191.355 158.978C191.747 158.819 192.031 158.609 192.209 158.348C192.395 158.087 192.489 157.797 192.489 157.48C192.489 157.097 192.377 156.789 192.153 156.556C191.938 156.323 191.653 156.141 191.299 156.01C190.944 155.87 190.552 155.749 190.123 155.646C189.693 155.543 189.264 155.436 188.835 155.324C188.405 155.203 188.009 155.044 187.645 154.848C187.29 154.652 187.001 154.395 186.777 154.078C186.562 153.751 186.455 153.327 186.455 152.804C186.455 152.319 186.581 151.875 186.833 151.474C187.094 151.063 187.491 150.737 188.023 150.494C188.555 150.242 189.236 150.116 190.067 150.116C190.617 150.116 191.163 150.195 191.705 150.354C192.246 150.503 192.713 150.713 193.105 150.984L192.755 151.81C192.335 151.53 191.887 151.325 191.411 151.194C190.944 151.063 190.491 150.998 190.053 150.998C189.465 150.998 188.979 151.077 188.597 151.236C188.214 151.395 187.929 151.609 187.743 151.88C187.565 152.141 187.477 152.44 187.477 152.776C187.477 153.159 187.584 153.467 187.799 153.7C188.023 153.933 188.312 154.115 188.667 154.246C189.031 154.377 189.427 154.493 189.857 154.596C190.286 154.699 190.711 154.811 191.131 154.932C191.56 155.053 191.952 155.212 192.307 155.408C192.671 155.595 192.96 155.847 193.175 156.164C193.399 156.481 193.511 156.897 193.511 157.41C193.511 157.886 193.38 158.329 193.119 158.74C192.857 159.141 192.456 159.468 191.915 159.72C191.383 159.963 190.697 160.084 189.857 160.084ZM200.052 160.084C199.315 160.084 198.629 159.963 197.994 159.72C197.369 159.468 196.823 159.118 196.356 158.67C195.899 158.213 195.539 157.685 195.278 157.088C195.026 156.481 194.9 155.819 194.9 155.1C194.9 154.381 195.026 153.723 195.278 153.126C195.539 152.519 195.899 151.992 196.356 151.544C196.823 151.087 197.369 150.737 197.994 150.494C198.619 150.242 199.305 150.116 200.052 150.116C200.789 150.116 201.471 150.242 202.096 150.494C202.721 150.737 203.263 151.082 203.72 151.53C204.187 151.978 204.546 152.505 204.798 153.112C205.059 153.719 205.19 154.381 205.19 155.1C205.19 155.819 205.059 156.481 204.798 157.088C204.546 157.695 204.187 158.222 203.72 158.67C203.263 159.118 202.721 159.468 202.096 159.72C201.471 159.963 200.789 160.084 200.052 160.084ZM200.052 159.16C200.64 159.16 201.181 159.062 201.676 158.866C202.18 158.661 202.614 158.376 202.978 158.012C203.351 157.639 203.641 157.209 203.846 156.724C204.051 156.229 204.154 155.688 204.154 155.1C204.154 154.512 204.051 153.975 203.846 153.49C203.641 152.995 203.351 152.566 202.978 152.202C202.614 151.829 202.18 151.544 201.676 151.348C201.181 151.143 200.64 151.04 200.052 151.04C199.464 151.04 198.918 151.143 198.414 151.348C197.91 151.544 197.471 151.829 197.098 152.202C196.734 152.566 196.445 152.995 196.23 153.49C196.025 153.975 195.922 154.512 195.922 155.1C195.922 155.679 196.025 156.215 196.23 156.71C196.445 157.205 196.734 157.639 197.098 158.012C197.471 158.376 197.91 158.661 198.414 158.866C198.918 159.062 199.464 159.16 200.052 159.16ZM207.512 160V150.2H208.548V159.104H214.036V160H207.512ZM219.849 160.084C219.111 160.084 218.425 159.963 217.791 159.72C217.165 159.468 216.619 159.118 216.153 158.67C215.695 158.213 215.336 157.685 215.075 157.088C214.823 156.481 214.697 155.819 214.697 155.1C214.697 154.381 214.823 153.723 215.075 153.126C215.336 152.519 215.695 151.992 216.153 151.544C216.619 151.087 217.165 150.737 217.791 150.494C218.416 150.242 219.102 150.116 219.849 150.116C220.586 150.116 221.267 150.242 221.893 150.494C222.518 150.737 223.059 151.082 223.517 151.53C223.983 151.978 224.343 152.505 224.595 153.112C224.856 153.719 224.987 154.381 224.987 155.1C224.987 155.819 224.856 156.481 224.595 157.088C224.343 157.695 223.983 158.222 223.517 158.67C223.059 159.118 222.518 159.468 221.893 159.72C221.267 159.963 220.586 160.084 219.849 160.084ZM219.849 159.16C220.437 159.16 220.978 159.062 221.473 158.866C221.977 158.661 222.411 158.376 222.775 158.012C223.148 157.639 223.437 157.209 223.643 156.724C223.848 156.229 223.951 155.688 223.951 155.1C223.951 154.512 223.848 153.975 223.643 153.49C223.437 152.995 223.148 152.566 222.775 152.202C222.411 151.829 221.977 151.544 221.473 151.348C220.978 151.143 220.437 151.04 219.849 151.04C219.261 151.04 218.715 151.143 218.211 151.348C217.707 151.544 217.268 151.829 216.895 152.202C216.531 152.566 216.241 152.995 216.027 153.49C215.821 153.975 215.719 154.512 215.719 155.1C215.719 155.679 215.821 156.215 216.027 156.71C216.241 157.205 216.531 157.639 216.895 158.012C217.268 158.376 217.707 158.661 218.211 158.866C218.715 159.062 219.261 159.16 219.849 159.16ZM230.973 160V150.2H232.009V159.104H237.497V160H230.973ZM242.987 160.084C241.737 160.084 240.752 159.725 240.033 159.006C239.315 158.287 238.955 157.223 238.955 155.814V150.2H239.991V155.772C239.991 156.929 240.253 157.783 240.775 158.334C241.298 158.885 242.035 159.16 242.987 159.16C243.949 159.16 244.691 158.885 245.213 158.334C245.736 157.783 245.997 156.929 245.997 155.772V150.2H247.005V155.814C247.005 157.223 246.646 158.287 245.927 159.006C245.218 159.725 244.238 160.084 242.987 160.084ZM254.425 160.084C253.679 160.084 252.988 159.963 252.353 159.72C251.728 159.468 251.182 159.118 250.715 158.67C250.258 158.222 249.899 157.695 249.637 157.088C249.385 156.481 249.259 155.819 249.259 155.1C249.259 154.381 249.385 153.719 249.637 153.112C249.899 152.505 250.263 151.978 250.729 151.53C251.196 151.082 251.742 150.737 252.367 150.494C253.002 150.242 253.693 150.116 254.439 150.116C255.186 150.116 255.867 150.233 256.483 150.466C257.109 150.699 257.641 151.054 258.079 151.53L257.435 152.188C257.025 151.777 256.572 151.483 256.077 151.306C255.583 151.129 255.051 151.04 254.481 151.04C253.875 151.04 253.315 151.143 252.801 151.348C252.297 151.544 251.854 151.829 251.471 152.202C251.098 152.566 250.804 152.995 250.589 153.49C250.384 153.975 250.281 154.512 250.281 155.1C250.281 155.679 250.384 156.215 250.589 156.71C250.804 157.205 251.098 157.639 251.471 158.012C251.854 158.376 252.297 158.661 252.801 158.866C253.315 159.062 253.87 159.16 254.467 159.16C255.027 159.16 255.555 159.076 256.049 158.908C256.553 158.74 257.015 158.455 257.435 158.054L258.023 158.838C257.557 159.249 257.011 159.561 256.385 159.776C255.76 159.981 255.107 160.084 254.425 160.084ZM257.029 158.712V155.1H258.023V158.838L257.029 158.712ZM259.387 160L263.867 150.2H264.889L269.369 160H268.277L264.161 150.802H264.581L260.465 160H259.387ZM261.151 157.382L261.459 156.542H267.157L267.465 157.382H261.151ZM270.991 160V150.2H274.659C275.489 150.2 276.203 150.335 276.801 150.606C277.398 150.867 277.855 151.25 278.173 151.754C278.499 152.249 278.663 152.851 278.663 153.56C278.663 154.251 278.499 154.848 278.173 155.352C277.855 155.847 277.398 156.229 276.801 156.5C276.203 156.761 275.489 156.892 274.659 156.892H271.565L272.027 156.416V160H270.991ZM277.683 160L275.163 156.444H276.283L278.817 160H277.683ZM272.027 156.5L271.565 156.01H274.631C275.611 156.01 276.353 155.795 276.857 155.366C277.37 154.937 277.627 154.335 277.627 153.56C277.627 152.776 277.37 152.169 276.857 151.74C276.353 151.311 275.611 151.096 274.631 151.096H271.565L272.027 150.606V156.5Z" fill="black" fill-opacity="0.7"/>
<defs>
<linearGradient id="paint0_linear_469_38304" x1="168.334" y1="1.49414" x2="168.334" y2="55.0786" gradientUnits="userSpaceOnUse">
<stop stop-color="#E13B9F"/>
<stop offset="1"/>
</linearGradient>
<linearGradient id="paint1_linear_469_38304" x1="97.401" y1="129.149" x2="97.401" y2="160.019" gradientUnits="userSpaceOnUse">
<stop/>
<stop offset="1" stop-color="#E13B9F"/>
</linearGradient>
<linearGradient id="paint2_linear_469_38304" x1="18.0475" y1="119.5" x2="248.461" y2="119.5" gradientUnits="userSpaceOnUse">
<stop/>
<stop offset="1" stop-color="#E13B9F"/>
</linearGradient>
</defs>
</svg>
