<svg width="70" height="179" viewBox="0 0 70 179" fill="none" xmlns="http://www.w3.org/2000/svg">
<path d="M68 155.049L6.94399 155.049L6.94399 178.665L0.799991 178.665L0.799989 124.329L6.94399 124.329L6.94399 147.945L68 147.945L68 155.049ZM68.576 100.995C68.576 105.347 67.872 109.219 66.464 112.611C64.992 116.003 62.976 118.691 60.416 120.675C57.856 122.595 54.88 123.555 51.488 123.555C48.608 123.555 45.984 122.915 43.616 121.635C41.184 120.355 38.816 118.307 36.512 115.491C34.144 112.611 31.68 108.803 29.12 104.067C26.88 100.035 24.96 96.8988 23.36 94.6588C21.696 92.3548 20.128 90.7228 18.656 89.7628C17.12 88.8028 15.488 88.3228 13.76 88.3228C11.264 88.3228 9.24799 89.1868 7.71199 90.9148C6.17599 92.5788 5.40799 94.9788 5.40799 98.1148C5.40799 101.507 6.27199 104.131 7.99999 105.987C9.66399 107.843 11.84 108.771 14.528 108.771C15.872 108.771 17.152 108.579 18.368 108.195C19.584 107.747 20.928 106.947 22.4 105.795C23.872 104.579 25.728 102.915 27.968 100.803L64.544 65.2828L69.056 69.2188L30.944 106.275C28.576 108.515 26.528 110.307 24.8 111.651C23.008 112.931 21.312 113.827 19.712 114.339C18.112 114.851 16.416 115.107 14.624 115.107C11.744 115.107 9.24799 114.435 7.13599 113.091C4.95999 111.683 3.29599 109.699 2.14399 107.139C0.927988 104.579 0.319988 101.571 0.319988 98.1148C0.319988 94.9788 0.863989 92.2588 1.95199 89.9548C2.97599 87.5868 4.47999 85.7628 6.46399 84.4828C8.44799 83.1388 10.848 82.4668 13.664 82.4668C16.096 82.4668 18.368 83.0748 20.48 84.2908C22.592 85.4428 24.672 87.3628 26.72 90.0508C28.704 92.7388 30.944 96.3868 33.44 100.995C35.68 105.027 37.728 108.227 39.584 110.595C41.44 112.899 43.264 114.531 45.056 115.491C46.784 116.451 48.704 116.931 50.816 116.931C53.248 116.931 55.392 116.259 57.248 114.915C59.04 113.507 60.448 111.587 61.472 109.155C62.432 106.659 62.912 103.811 62.912 100.611C62.912 96.1308 61.984 92.1308 60.128 88.6108C58.272 85.0908 55.456 82.1468 51.68 79.7788C47.904 77.3468 43.168 75.5868 37.472 74.4988L39.2 69.0268C45.6 70.2428 50.976 72.3228 55.328 75.2668C59.68 78.2108 62.976 81.8588 65.216 86.2108C67.456 90.5628 68.576 95.4908 68.576 100.995ZM68.576 24.872C68.576 29.928 67.744 34.6 66.08 38.888C64.352 43.176 61.952 46.888 58.88 50.024C55.808 53.16 52.192 55.624 48.032 57.416C43.872 59.144 39.328 60.008 34.4 60.008C29.472 60.008 24.928 59.144 20.768 57.416C16.608 55.624 12.992 53.16 9.91999 50.024C6.84799 46.824 4.47999 43.08 2.81599 38.792C1.08799 34.504 0.223986 29.832 0.223986 24.776C0.223986 19.912 1.05599 15.336 2.71999 11.048C4.31999 6.76 6.75199 3.144 10.016 0.199998L14.528 4.712C11.712 7.464 9.69599 10.504 8.47999 13.832C7.19999 17.16 6.55998 20.744 6.55998 24.584C6.55998 28.616 7.26399 32.36 8.67199 35.816C10.016 39.272 11.968 42.28 14.528 44.84C17.024 47.4 19.968 49.416 23.36 50.888C26.688 52.296 30.368 53 34.4 53C38.432 53 42.144 52.296 45.536 50.888C48.864 49.416 51.808 47.4 54.368 44.84C56.864 42.28 58.816 39.272 60.224 35.816C61.568 32.36 62.24 28.616 62.24 24.584C62.24 20.744 61.6 17.16 60.32 13.832C59.04 10.504 56.992 7.46399 54.176 4.71199L58.688 0.199995C61.952 3.144 64.416 6.75999 66.08 11.048C67.744 15.336 68.576 19.944 68.576 24.872Z" fill="black"/>
</svg>
